<svg xmlns="http://www.w3.org/2000/svg" xmlns:xlink="http://www.w3.org/1999/xlink" width="500" zoomAndPan="magnify" viewBox="0 0 375 374.999991" height="500" preserveAspectRatio="xMidYMid meet" version="1.0"><defs><clipPath id="aeef59cc32"><path d="M 0 0 L 196 0 L 196 102 L 0 102 Z M 0 0 " clip-rule="nonzero"/></clipPath><clipPath id="882585faa6"><path d="M 202.859375 5.777344 L -18.628906 133.652344 L -50.503906 78.445312 L 170.984375 -49.429688 Z M 202.859375 5.777344 " clip-rule="nonzero"/></clipPath><clipPath id="09832a5aa6"><path d="M 170.878906 -49.613281 L -50.609375 78.261719 L -18.734375 133.46875 L 202.753906 5.59375 Z M 170.878906 -49.613281 " clip-rule="nonzero"/></clipPath><clipPath id="71573540d0"><path d="M 170.878906 -49.613281 L -50.609375 78.261719 L -18.734375 133.46875 L 202.753906 5.59375 Z M 170.878906 -49.613281 " clip-rule="nonzero"/></clipPath></defs><g clip-path="url(#aeef59cc32)"><g clip-path="url(#882585faa6)"><g clip-path="url(#09832a5aa6)"><g clip-path="url(#71573540d0)"><path fill="#231f20" d="M -5.632812 84.414062 C -5.054688 84.078125 -4.496094 83.707031 -3.902344 83.316406 C -0.902344 81.25 2.625 78.921875 6.386719 76.414062 C 21.359375 66.519531 39.988281 54.179688 46.542969 45.824219 C 46.875 45.394531 80.574219 2.953125 117.425781 -16.496094 C 148.890625 -33.074219 178.609375 -35.472656 178.890625 -35.488281 L 178.851562 -35.804688 C 178.574219 -35.785156 148.78125 -33.347656 117.242188 -16.726562 C 80.355469 2.742188 46.605469 45.261719 46.253906 45.65625 C 39.710938 53.953125 21.121094 66.273438 6.167969 76.203125 C 2.410156 78.710938 -1.121094 81.039062 -4.121094 83.105469 C -14.078125 89.914062 -26.621094 88.402344 -35.789062 87.304688 C -40.105469 86.765625 -43.53125 86.339844 -45.398438 87.03125 L -45.289062 87.304688 C -43.496094 86.652344 -40.101562 87.101562 -35.8125 87.601562 C -27.109375 88.640625 -15.398438 90.050781 -5.632812 84.414062 Z M -35.828125 88.238281 C -40.011719 87.671875 -43.328125 87.277344 -44.976562 87.847656 L -45.085938 87.574219 C -43.363281 86.964844 -40.03125 87.394531 -35.808594 87.9375 C -26.785156 89.121094 -13.160156 90.921875 -2.597656 83.910156 C 0.425781 81.875 3.9375 79.609375 7.667969 77.214844 C 22.6875 67.484375 41.382812 55.34375 48.300781 47.359375 C 49.804688 45.625 51.558594 43.652344 53.347656 41.65625 C 62.003906 32.089844 77.34375 16.984375 91.558594 4.015625 C 100.574219 -4.171875 109.554688 -10.75 118.199219 -15.402344 C 126.628906 -19.933594 135.496094 -23.613281 144.652344 -26.300781 C 164.570312 -32.222656 179.722656 -34.046875 179.851562 -34.074219 L 179.886719 -33.757812 C 179.757812 -33.730469 164.644531 -31.929688 144.796875 -26.046875 C 135.664062 -23.324219 126.773438 -19.679688 118.382812 -15.171875 C 109.757812 -10.480469 100.792969 -3.960938 91.777344 4.226562 C 77.539062 17.160156 62.199219 32.265625 53.566406 41.867188 C 51.777344 43.863281 50.023438 45.835938 48.515625 47.570312 C 41.566406 55.578125 22.871094 67.714844 7.8125 77.46875 C 4.105469 79.898438 0.59375 82.164062 -2.449219 84.164062 C -2.9375 84.492188 -3.40625 84.761719 -3.875 85.035156 C -14.292969 91.046875 -27.179688 89.351562 -35.828125 88.238281 Z M -35.90625 88.859375 C -39.960938 88.265625 -43.164062 87.808594 -44.664062 88.386719 L -44.773438 88.113281 C -43.21875 87.550781 -39.957031 88.023438 -35.863281 88.59375 C -26.453125 89.941406 -12.238281 91.929688 -1.035156 84.691406 C 1.847656 82.835938 5.128906 80.75 8.550781 78.578125 C 23.875 68.867188 42.960938 56.742188 50.324219 49.027344 C 50.957031 48.375 51.644531 47.640625 52.417969 46.808594 C 53.351562 45.839844 54.410156 44.746094 55.554688 43.558594 C 59.515625 39.394531 65.265625 33.816406 71.929688 27.320312 C 78.707031 20.765625 86.363281 13.3125 93.527344 6.007812 C 101.90625 -2.535156 110.539062 -9.296875 119.171875 -14.136719 C 127.5 -18.753906 136.433594 -22.324219 145.660156 -24.71875 C 165.53125 -29.890625 180.742188 -32.277344 180.871094 -32.304688 L 180.945312 -32.011719 C 180.816406 -31.984375 165.605469 -29.597656 145.792969 -24.410156 C 136.5625 -22.015625 127.703125 -18.488281 119.375 -13.871094 C 110.753906 -9.085938 102.179688 -2.308594 93.78125 6.195312 C 86.617188 13.503906 78.960938 20.953125 72.1875 27.511719 C 65.496094 33.96875 59.769531 39.582031 55.808594 43.746094 C 54.699219 44.914062 53.640625 46.007812 52.671875 47 C 51.878906 47.796875 51.191406 48.527344 50.578125 49.21875 C 43.199219 56.988281 24.09375 69.078125 8.734375 78.8125 C 5.273438 81 2.027344 83.066406 -0.851562 84.921875 C -1.265625 85.210938 -1.664062 85.441406 -2.097656 85.691406 C -13.164062 92.078125 -26.757812 90.167969 -35.90625 88.859375 Z M -36.015625 89.5 C -39.921875 88.917969 -43.035156 88.457031 -44.351562 88.929688 L -44.460938 88.65625 C -43.050781 88.175781 -40.050781 88.609375 -35.976562 89.238281 C -26.167969 90.691406 -11.355469 92.957031 0.453125 85.515625 C 3.320312 83.714844 6.511719 81.726562 9.886719 79.636719 C 25.363281 70.027344 44.632812 58.132812 52.347656 50.699219 L 52.59375 50.457031 C 54.03125 49.101562 55.777344 47.371094 57.722656 45.476562 C 60.109375 43.089844 63.246094 40.175781 66.878906 36.777344 C 75.578125 28.628906 86.371094 18.503906 95.476562 8.050781 C 103.082031 -0.664062 111.613281 -7.851562 120.148438 -12.777344 C 128.472656 -17.488281 137.375 -20.945312 146.695312 -23.007812 C 166.492188 -27.5625 181.742188 -30.546875 181.871094 -30.574219 L 181.945312 -30.28125 C 181.816406 -30.253906 166.566406 -27.265625 146.800781 -22.828125 C 137.5 -20.730469 128.632812 -17.292969 120.347656 -12.605469 C 120.273438 -12.5625 120.203125 -12.519531 120.164062 -12.5 C 111.703125 -7.613281 103.277344 -0.488281 95.785156 8.164062 C 86.675781 18.617188 75.847656 28.761719 67.148438 36.910156 C 63.515625 40.308594 60.378906 43.222656 57.992188 45.609375 C 56.105469 47.519531 54.300781 49.234375 52.863281 50.589844 L 52.617188 50.832031 C 44.867188 58.285156 25.582031 70.238281 10.082031 79.8125 C 6.710938 81.902344 3.515625 83.890625 0.648438 85.691406 C 0.324219 85.878906 -0.015625 86.121094 -0.339844 86.3125 C -12.097656 93.097656 -26.414062 90.929688 -36.015625 89.5 Z M -36.09375 90.121094 C -39.867188 89.511719 -42.832031 89.058594 -44.003906 89.449219 L -44.113281 89.175781 C -42.832031 88.722656 -40 89.203125 -36.035156 89.800781 C -26.464844 91.34375 -10.421875 93.910156 2.027344 86.242188 C 5.023438 84.414062 8.347656 82.398438 11.851562 80.28125 C 27.25 70.957031 46.441406 59.347656 54.421875 52.289062 C 56.148438 50.765625 57.996094 49.121094 59.945312 47.320312 C 61.714844 45.625 63.957031 43.660156 66.53125 41.355469 C 75.699219 33.175781 88.253906 21.9375 97.460938 9.984375 C 104.425781 0.914062 112.628906 -6.511719 121.191406 -11.554688 C 129.453125 -16.371094 138.382812 -19.699219 147.777344 -21.46875 C 167.429688 -25.265625 182.761719 -28.78125 182.890625 -28.808594 L 182.964844 -28.511719 C 182.800781 -28.464844 167.503906 -24.972656 147.832031 -21.210938 C 138.566406 -19.46875 129.730469 -16.148438 121.554688 -11.425781 C 121.484375 -11.386719 121.410156 -11.34375 121.339844 -11.300781 C 112.84375 -6.300781 104.644531 1.125 97.714844 10.175781 C 88.53125 22.160156 75.917969 33.386719 66.75 41.566406 C 64.171875 43.871094 61.953125 45.871094 60.164062 47.53125 C 58.199219 49.386719 56.347656 51.03125 54.660156 52.535156 C 46.683594 59.59375 27.488281 71.203125 12.050781 80.550781 C 8.550781 82.667969 5.226562 84.683594 2.230469 86.507812 C 1.980469 86.652344 1.761719 86.78125 1.507812 86.925781 C -11.003906 94.152344 -26.671875 91.65625 -36.09375 90.121094 Z M -36.203125 90.761719 C -39.945312 90.132812 -42.625 89.664062 -43.671875 90.023438 L -43.78125 89.75 C -42.664062 89.347656 -39.925781 89.832031 -36.148438 90.441406 C -26.308594 92.117188 -9.953125 94.890625 3.140625 87.328125 C 3.285156 87.246094 3.429688 87.164062 3.574219 87.078125 C 6.808594 85.164062 10.332031 83.082031 14.050781 80.835938 C 30.113281 71.324219 48.308594 60.578125 56.445312 53.957031 C 58.210938 52.503906 60.160156 50.949219 62.128906 49.183594 C 63.570312 47.921875 65.28125 46.453125 67.292969 44.761719 C 76.589844 36.894531 90.640625 24.980469 99.429688 11.972656 C 105.792969 2.53125 113.660156 -5.136719 122.164062 -10.289062 C 130.363281 -15.214844 139.355469 -18.433594 148.824219 -19.910156 C 168.371094 -22.972656 183.726562 -27.027344 183.890625 -27.078125 L 183.964844 -26.78125 C 183.796875 -26.734375 168.441406 -22.675781 148.859375 -19.59375 C 139.429688 -18.140625 130.496094 -14.90625 122.3125 -10.035156 C 113.824219 -4.941406 106.011719 2.742188 99.664062 12.128906 C 90.859375 25.191406 76.808594 37.105469 67.476562 44.992188 C 65.460938 46.683594 63.753906 48.152344 62.3125 49.417969 C 60.339844 51.179688 58.429688 52.714844 56.628906 54.1875 C 48.492188 60.808594 30.261719 71.578125 14.199219 81.089844 C 10.457031 83.296875 6.933594 85.378906 3.71875 87.332031 C 3.574219 87.414062 3.429688 87.5 3.25 87.601562 C -9.914062 95.203125 -26.328125 92.417969 -36.203125 90.761719 Z M -36.414062 91.316406 C -39.96875 90.675781 -42.5 90.214844 -43.414062 90.550781 L -43.523438 90.277344 C -42.515625 89.9375 -40.097656 90.367188 -36.394531 91.015625 C -26.8125 92.746094 -8.953125 95.949219 4.898438 87.949219 C 4.933594 87.929688 5.003906 87.886719 5.042969 87.867188 C 8.78125 85.660156 12.832031 83.320312 17.136719 80.835938 C 32.6875 71.855469 50.300781 61.6875 58.449219 55.589844 C 60.207031 54.285156 62.28125 52.703125 64.28125 51.070312 C 65.421875 50.121094 66.777344 49.050781 68.296875 47.835938 C 77.601562 40.398438 93.152344 27.910156 101.339844 13.949219 C 107.050781 4.207031 114.566406 -3.738281 123.101562 -9 C 131.1875 -13.957031 140.421875 -17.175781 149.816406 -18.269531 C 161.660156 -19.722656 173.449219 -22.105469 184.910156 -25.308594 L 184.984375 -25.015625 C 173.488281 -21.792969 161.699219 -19.410156 149.855469 -17.957031 C 140.515625 -16.84375 131.316406 -13.648438 123.269531 -8.714844 C 114.769531 -3.46875 107.324219 4.433594 101.632812 14.117188 C 93.390625 28.15625 77.839844 40.644531 68.5 48.105469 C 66.945312 49.339844 65.625 50.390625 64.484375 51.335938 C 62.449219 52.992188 60.410156 54.554688 58.652344 55.855469 C 50.503906 61.957031 32.855469 72.144531 17.304688 81.125 C 13 83.609375 8.949219 85.949219 5.246094 88.132812 C 5.171875 88.175781 5.136719 88.199219 5.0625 88.238281 C -8.882812 96.242188 -26.777344 93.0625 -36.414062 91.316406 Z M 21.480469 80.589844 C 16.230469 83.523438 11.289062 86.328125 6.785156 88.878906 C -7.941406 97.285156 -26.566406 93.757812 -36.566406 91.886719 C -39.878906 91.25 -42.296875 90.820312 -43.066406 91.070312 L -43.175781 90.796875 C -42.296875 90.484375 -40.007812 90.941406 -36.511719 91.566406 C -26.546875 93.457031 -7.941406 96.949219 6.617188 88.59375 C 11.125 86.039062 16.0625 83.234375 21.3125 80.300781 C 36.679688 71.667969 52.550781 62.746094 60.511719 57.238281 C 62.539062 55.824219 64.570312 54.410156 66.484375 52.96875 C 67.34375 52.28125 68.402344 51.527344 69.511719 50.691406 C 78.714844 43.746094 95.8125 30.84375 103.347656 15.917969 C 108.335938 6.015625 115.695312 -2.371094 124.128906 -7.71875 C 132.171875 -12.75 141.433594 -15.835938 150.882812 -16.675781 C 162.714844 -17.734375 174.523438 -20.082031 185.910156 -23.578125 L 185.984375 -23.285156 C 174.5625 -19.765625 162.765625 -17.476562 150.863281 -16.375 C 141.449219 -15.558594 132.261719 -12.511719 124.253906 -7.503906 C 115.855469 -2.171875 108.53125 6.191406 103.59375 16.011719 C 96.042969 31 78.910156 43.921875 69.671875 50.890625 C 68.5625 51.722656 67.5625 52.492188 66.648438 53.164062 C 64.714844 54.664062 62.722656 56.054688 60.65625 57.488281 C 56.308594 60.480469 49.644531 64.472656 41.976562 68.898438 C 35.59375 72.632812 28.5 76.632812 21.480469 80.589844 Z M 27.144531 79.289062 C 20.695312 82.820312 14.027344 86.476562 8.273438 89.703125 C -7.222656 98.363281 -27.257812 94.398438 -36.871094 92.445312 C -39.917969 91.847656 -42.148438 91.40625 -42.789062 91.632812 L -42.902344 91.359375 C -42.1875 91.09375 -40.046875 91.539062 -36.832031 92.183594 C -27.238281 94.097656 -7.296875 98.066406 8.125 89.453125 C 13.882812 86.226562 20.546875 82.570312 26.996094 79.039062 C 40.820312 71.492188 55.074219 63.691406 62.519531 58.960938 C 64.46875 57.742188 66.683594 56.316406 68.65625 54.890625 C 69.265625 54.441406 69.945312 53.953125 70.699219 53.421875 C 79.714844 47.0625 98.527344 33.796875 105.257812 17.890625 C 109.59375 7.691406 116.636719 -0.988281 125.046875 -6.46875 C 133.082031 -11.589844 142.347656 -14.585938 151.855469 -15.074219 C 163.78125 -15.800781 175.558594 -18.035156 186.875 -21.824219 L 186.945312 -21.53125 C 175.632812 -17.742188 163.839844 -15.453125 151.894531 -14.757812 C 142.421875 -14.289062 133.191406 -11.316406 125.25 -6.203125 C 116.875 -0.742188 109.882812 7.863281 105.5625 18.003906 C 98.78125 33.988281 79.96875 47.253906 70.882812 53.652344 C 70.128906 54.183594 69.445312 54.671875 68.835938 55.121094 C 66.863281 56.550781 64.628906 57.9375 62.703125 59.195312 C 60.523438 60.597656 57.722656 62.261719 54.539062 64.097656 C 46.871094 68.523438 36.886719 73.953125 27.144531 79.289062 Z M 31.851562 78.925781 C 24.339844 82.785156 16.535156 86.808594 9.832031 90.488281 C -6.46875 99.417969 -27.140625 95.101562 -37.117188 93.023438 C -39.921875 92.429688 -41.945312 92.011719 -42.457031 92.210938 L -42.566406 91.9375 C -41.960938 91.730469 -40.109375 92.101562 -37.042969 92.738281 C -27.121094 94.800781 -6.542969 99.125 9.6875 90.234375 C 16.390625 86.558594 24.191406 82.53125 31.707031 78.675781 C 45.082031 71.769531 57.730469 65.285156 64.578125 60.609375 C 66.71875 59.132812 69.007812 58.003906 70.863281 56.789062 L 71.796875 56.152344 C 80.621094 50.386719 101.214844 36.863281 107.210938 19.9375 C 110.929688 9.421875 117.605469 0.519531 126.023438 -5.109375 C 133.777344 -10.308594 143.089844 -13.136719 152.871094 -13.398438 C 172.136719 -13.941406 187.785156 -19.996094 187.929688 -20.078125 L 188.023438 -19.75 C 187.859375 -19.703125 172.171875 -13.628906 152.886719 -13.121094 C 143.105469 -12.859375 133.886719 -10.035156 126.183594 -4.914062 C 117.800781 0.695312 111.179688 9.519531 107.472656 19.976562 C 101.445312 37.015625 80.78125 50.582031 71.921875 56.371094 L 70.988281 57.007812 C 69.097656 58.242188 66.84375 59.351562 64.703125 60.824219 C 62.796875 62.117188 60.453125 63.570312 57.777344 65.113281 C 50.796875 69.144531 41.503906 73.929688 31.851562 78.925781 Z M 70.097656 60.644531 C 69.027344 61.214844 67.867188 61.789062 66.765625 62.472656 C 60.257812 66.566406 48.757812 72.292969 36.585938 78.359375 C 27.976562 82.65625 19.09375 87.0625 11.335938 91.253906 C -5.84375 100.5 -27.972656 95.582031 -37.40625 93.523438 C -39.886719 92.984375 -41.707031 92.59375 -42.109375 92.730469 L -42.21875 92.457031 C -41.742188 92.277344 -40.304688 92.601562 -37.328125 93.242188 C -27.933594 95.316406 -5.847656 100.164062 11.226562 90.980469 C 19.003906 86.828125 27.867188 82.382812 36.476562 78.085938 C 48.648438 72.019531 60.109375 66.316406 66.621094 62.222656 C 67.753906 61.515625 68.863281 60.925781 69.988281 60.371094 C 71.09375 59.78125 72.148438 59.269531 73.082031 58.632812 C 73.859375 58.136719 74.683594 57.5625 75.675781 56.945312 C 85.042969 50.863281 104.601562 38.222656 109.230469 21.847656 C 112.316406 11.074219 118.660156 1.929688 127.066406 -3.886719 C 134.742188 -9.136719 144.039062 -11.90625 154.011719 -11.84375 C 173.054688 -11.683594 188.75 -18.246094 188.914062 -18.292969 L 189.058594 -18.039062 C 188.894531 -17.992188 173.128906 -11.390625 153.933594 -11.558594 C 144.058594 -11.628906 134.796875 -8.875 127.191406 -3.671875 C 118.820312 2.125 112.527344 11.191406 109.457031 21.910156 C 104.78125 38.363281 85.203125 51.058594 75.765625 57.179688 C 74.773438 57.800781 73.945312 58.375 73.171875 58.871094 C 72.867188 59.09375 72.542969 59.28125 72.214844 59.46875 C 71.550781 59.902344 70.84375 60.265625 70.097656 60.644531 Z M 75.363281 60.828125 C 73.714844 61.730469 71.769531 62.707031 69.554688 63.796875 L 68.773438 64.199219 C 65.359375 65.882812 60.921875 68.058594 55.78125 70.59375 C 43.425781 76.671875 26.503906 84.949219 12.882812 92.09375 C -5.21875 101.582031 -28.042969 96.292969 -37.765625 94.070312 C -39.871094 93.601562 -41.539062 93.21875 -41.832031 93.292969 L -41.941406 93.019531 C -41.539062 92.882812 -40.363281 93.164062 -37.691406 93.785156 C -28.003906 96.03125 -5.273438 101.324219 12.734375 91.839844 C 26.394531 84.675781 43.316406 76.398438 55.636719 70.339844 C 60.777344 67.804688 65.210938 65.628906 68.59375 63.96875 L 69.371094 63.566406 C 71.625 62.457031 73.53125 61.5 75.179688 60.597656 C 86.992188 54.160156 107.359375 40.910156 111.109375 23.933594 C 113.558594 12.808594 119.535156 3.445312 127.953125 -2.523438 C 135.578125 -7.933594 144.867188 -10.558594 154.933594 -10.164062 C 173.988281 -9.480469 189.769531 -16.476562 189.914062 -16.5625 L 190.023438 -16.289062 C 189.878906 -16.203125 174.003906 -9.203125 154.871094 -9.9375 C 144.976562 -10.285156 135.726562 -7.683594 128.167969 -2.3125 C 119.804688 3.578125 113.863281 12.921875 111.410156 23.953125 C 107.957031 39.605469 90.539062 52.113281 78.492188 59.066406 C 77.410156 59.695312 76.359375 60.300781 75.363281 60.828125 Z M 77.546875 62.691406 C 76.492188 63.203125 75.203125 63.804688 73.851562 64.390625 C 72.90625 64.84375 71.867188 65.296875 70.777344 65.832031 C 61.964844 69.859375 35.128906 82.179688 14.386719 92.859375 C -4.726562 102.691406 -29.027344 96.765625 -38.191406 94.507812 C -39.878906 94.085938 -41.339844 93.726562 -41.542969 93.796875 L -41.652344 93.523438 C -41.378906 93.414062 -40.429688 93.636719 -38.113281 94.222656 C -29.007812 96.464844 -4.761719 102.375 14.238281 92.605469 C 34.984375 81.929688 61.820312 69.609375 70.632812 65.578125 C 71.6875 65.066406 72.726562 64.609375 73.707031 64.140625 C 75.035156 63.515625 76.289062 62.9375 77.402344 62.4375 C 80.746094 60.796875 89.402344 56.328125 97.332031 49.683594 C 106.488281 41.992188 111.757812 33.996094 113.058594 25.886719 C 114.839844 14.523438 120.496094 4.859375 128.921875 -1.253906 C 136.511719 -6.742188 145.839844 -9.292969 155.960938 -8.546875 C 174.921875 -7.28125 190.789062 -14.710938 190.933594 -14.792969 L 191.042969 -14.519531 C 190.898438 -14.4375 174.960938 -6.964844 155.921875 -8.285156 C 145.878906 -8.976562 136.621094 -6.46875 129.105469 -1.023438 C 120.714844 5.070312 115.144531 14.632812 113.378906 25.945312 C 112.085938 34.144531 106.742188 42.179688 97.535156 49.949219 C 92.832031 53.914062 87.855469 57.074219 83.914062 59.351562 C 81.179688 60.882812 78.914062 62.046875 77.546875 62.691406 Z M 79.71875 64.613281 C 78.894531 64.941406 77.964844 65.335938 76.925781 65.789062 C 75.6875 66.316406 74.316406 66.867188 72.800781 67.5 C 58.023438 73.722656 34.246094 84.324219 15.945312 93.640625 C -4.265625 103.820312 -30.050781 97.164062 -38.554688 94.957031 C -39.925781 94.59375 -41.007812 94.304688 -41.171875 94.351562 L -41.28125 94.078125 C -41.082031 94.011719 -40.453125 94.179688 -38.480469 94.671875 C -30.03125 96.863281 -4.304688 103.503906 15.800781 93.386719 C 34.101562 84.074219 57.875 73.472656 72.691406 67.226562 C 74.207031 66.59375 75.554688 66.003906 76.816406 65.515625 C 77.855469 65.0625 78.808594 64.703125 79.609375 64.339844 C 84.882812 62.113281 92.957031 57.640625 99.839844 51.9375 C 109.109375 44.277344 114.203125 36.140625 115.0625 27.855469 C 116.226562 16.171875 121.515625 6.292969 129.96875 -0.03125 C 137.492188 -5.625 146.847656 -8.046875 157.042969 -7.007812 C 175.871094 -5.136719 191.789062 -12.980469 191.933594 -13.0625 L 192.078125 -12.808594 C 191.933594 -12.726562 175.90625 -4.820312 156.96875 -6.722656 C 146.886719 -7.730469 137.601562 -5.351562 130.09375 0.183594 C 121.75 6.445312 116.511719 16.25 115.339844 27.839844 C 114.507812 36.253906 109.34375 44.429688 100.035156 52.113281 C 96.257812 55.253906 92.097656 57.992188 88.265625 60.207031 C 85.066406 62.101562 82.105469 63.570312 79.71875 64.613281 Z M 81.867188 66.496094 C 80.074219 67.148438 77.695312 68.039062 74.824219 69.167969 C 63.566406 73.554688 38.8125 83.804688 17.46875 94.445312 C 3.261719 101.492188 -15.789062 101.816406 -39.09375 95.363281 C -40.0625 95.105469 -40.804688 94.910156 -40.894531 94.914062 L -41.003906 94.640625 C -40.875 94.613281 -40.589844 94.691406 -38.996094 95.117188 C -15.769531 101.515625 3.152344 101.21875 17.324219 94.191406 C 38.667969 83.550781 63.457031 73.28125 74.714844 68.894531 C 77.585938 67.765625 80.019531 66.890625 81.757812 66.222656 C 86.699219 64.425781 95.050781 60.183594 102.308594 54.214844 C 111.515625 46.6875 116.605469 38.21875 116.972656 29.832031 C 117.496094 18.039062 122.585938 7.644531 130.902344 1.253906 C 138.367188 -4.445312 147.746094 -6.738281 158.015625 -5.40625 C 176.804688 -2.933594 192.789062 -11.246094 192.933594 -11.332031 L 193.097656 -11.042969 C 192.953125 -10.960938 176.878906 -2.640625 157.996094 -5.105469 C 147.820312 -6.445312 138.53125 -4.15625 131.085938 1.488281 C 122.855469 7.777344 117.835938 18.128906 117.308594 29.828125 C 116.914062 38.328125 111.804688 46.855469 102.527344 54.425781 C 99.15625 57.1875 95.554688 59.554688 92.191406 61.496094 C 88.234375 63.828125 84.539062 65.53125 81.867188 66.496094 Z M 84.074219 68.398438 C 82.347656 68.914062 79.925781 69.734375 76.847656 70.835938 C 62.691406 75.882812 38.550781 85.6875 18.996094 95.246094 C 4.164062 102.464844 -16.65625 102.65625 -39.652344 95.734375 C -40.164062 95.597656 -40.527344 95.472656 -40.621094 95.476562 L -40.609375 95.328125 L -40.5625 95.492188 L -40.671875 95.21875 C -40.601562 95.175781 -40.601562 95.175781 -39.554688 95.484375 C -16.636719 102.355469 4.109375 102.207031 18.871094 95.03125 C 38.460938 85.449219 62.605469 75.648438 76.761719 70.597656 C 79.835938 69.496094 82.257812 68.675781 83.984375 68.160156 C 89.050781 66.578125 97.753906 62.277344 104.824219 56.5625 C 116.582031 47.03125 119.019531 37.882812 118.960938 31.855469 C 118.886719 19.78125 123.589844 9.132812 131.917969 2.59375 C 139.230469 -3.117188 148.875 -5.371094 159.089844 -3.714844 C 177.773438 -0.753906 193.808594 -9.480469 193.972656 -9.527344 L 194.140625 -9.238281 C 193.996094 -9.15625 177.851562 -0.363281 159.011719 -3.433594 C 148.855469 -5.070312 139.300781 -2.824219 132.0625 2.847656 C 123.84375 9.324219 119.191406 19.894531 119.261719 31.875 C 119.351562 42.882812 111.554688 51.519531 105.003906 56.792969 C 102.113281 59.136719 98.910156 61.273438 95.835938 63.046875 C 91.367188 65.578125 87.066406 67.484375 84.074219 68.398438 Z M 86.242188 70.316406 C 77.730469 72.445312 46.832031 83.40625 20.519531 96.050781 C 7.007812 102.550781 -8.832031 102.175781 -19.742188 100.734375 C -31.539062 99.175781 -40.308594 96.015625 -40.363281 96.003906 L -40.25 95.695312 C -39.890625 95.824219 -5.339844 108.140625 20.410156 95.777344 C 46.722656 83.132812 77.65625 72.148438 86.167969 70.023438 C 90.355469 69.003906 99.421875 65.160156 107.292969 58.835938 C 119.167969 49.335938 121.234375 39.96875 120.910156 33.808594 C 120.230469 21.941406 124.296875 11.273438 131.996094 4.566406 C 139.304688 -1.816406 149.296875 -4.21875 160.078125 -2.171875 C 178.742188 1.429688 194.828125 -7.714844 194.972656 -7.796875 L 195.140625 -7.507812 C 194.996094 -7.425781 178.800781 1.78125 160.019531 -1.851562 C 149.335938 -3.902344 139.472656 -1.527344 132.179688 4.800781 C 124.550781 11.464844 120.570312 22.03125 121.226562 33.769531 C 122.011719 47.742188 110.09375 58.421875 99.386719 64.605469 C 94.179688 67.609375 89.285156 69.570312 86.242188 70.316406 Z M 86.242188 70.316406 " fill-opacity="1" fill-rule="nonzero"/></g></g></g></g></svg>