<svg xmlns="http://www.w3.org/2000/svg" xmlns:xlink="http://www.w3.org/1999/xlink" width="500" zoomAndPan="magnify" viewBox="0 0 375 374.999991" height="500" preserveAspectRatio="xMidYMid meet" version="1.0"><defs><g/><clipPath id="34f7f26696"><path d="M 189 187.5 L 279.75 187.5 L 279.75 280 L 189 280 Z M 189 187.5 " clip-rule="nonzero"/></clipPath></defs><g clip-path="url(#34f7f26696)"><path fill="#4c5e8d" d="M 258.269531 187.878906 C 257.496094 187.957031 256.683594 188.136719 256.445312 188.253906 C 256.226562 188.371094 255.652344 188.472656 255.175781 188.472656 C 254.699219 188.492188 254.105469 188.609375 253.828125 188.765625 C 253.550781 188.925781 253.015625 189.042969 252.636719 189.0625 C 252.261719 189.0625 251.605469 189.242188 251.191406 189.460938 C 250.792969 189.675781 250.160156 189.855469 249.78125 189.855469 C 249.328125 189.855469 248.890625 190.03125 248.453125 190.386719 C 248 190.785156 247.640625 190.902344 247.1875 190.863281 C 246.671875 190.824219 246.433594 190.960938 245.9375 191.535156 C 245.578125 191.929688 245.300781 192.34375 245.300781 192.464844 C 245.300781 192.601562 245.183594 192.542969 245.042969 192.34375 C 244.628906 191.773438 243.875 192.007812 243.476562 192.820312 C 242.863281 194.105469 242.664062 196.457031 242.804688 200.550781 C 242.863281 202.664062 242.984375 204.78125 243.042969 205.273438 C 243.242188 206.777344 242.984375 206.085938 242.527344 203.890625 C 242.128906 201.914062 242.109375 201.65625 242.347656 198.730469 C 242.644531 195.132812 242.488281 193.511719 241.832031 193.511719 C 241.199219 193.511719 241.019531 195.25 241.316406 198.710938 C 241.59375 201.972656 241.554688 202.425781 240.445312 206.855469 C 238.9375 212.84375 236.699219 218.675781 233.40625 225.140625 C 231.582031 228.757812 228.769531 233.679688 228.253906 234.214844 C 228.132812 234.332031 227.0625 234.195312 225.535156 233.878906 C 219.589844 232.652344 215.207031 232.257812 209.714844 232.414062 C 204.183594 232.574219 199.980469 233.324219 196.3125 234.828125 C 189.988281 237.378906 187.488281 241.824219 190.484375 245.1875 C 190.820312 245.582031 191.316406 246.234375 191.554688 246.628906 C 191.792969 247.042969 192.269531 247.558594 192.585938 247.796875 C 192.902344 248.011719 193.160156 248.308594 193.160156 248.46875 C 193.160156 248.707031 194.449219 249.988281 194.867188 250.167969 C 194.964844 250.207031 195.183594 250.503906 195.339844 250.839844 C 195.519531 251.15625 196.035156 251.628906 196.492188 251.886719 C 196.945312 252.144531 197.324219 252.460938 197.324219 252.597656 C 197.324219 252.996094 197.996094 253.507812 198.789062 253.726562 C 199.285156 253.863281 199.503906 254.042969 199.503906 254.300781 C 199.503906 254.851562 200.257812 255.289062 201.210938 255.289062 C 202.023438 255.289062 202.042969 255.308594 202.003906 255.921875 C 201.984375 256.574219 201.984375 256.574219 203.015625 256.632812 C 203.765625 256.671875 204.421875 256.554688 205.550781 256.097656 C 206.382812 255.78125 207.039062 255.546875 207 255.585938 C 206.960938 255.644531 206.363281 256.039062 205.691406 256.472656 C 203.609375 257.796875 204.261719 258.667969 206.503906 257.542969 C 207.535156 257.027344 210.371094 255.148438 211.101562 254.476562 C 212.09375 253.609375 219.886719 251.414062 225.378906 250.464844 C 230.789062 249.535156 233.367188 249.316406 240.367188 249.21875 L 247.046875 249.121094 L 247.1875 249.773438 C 247.960938 253.292969 251.089844 260.664062 253.75 265.210938 C 256.542969 269.976562 261.105469 275.195312 264.316406 277.308594 C 269.015625 280.414062 273.277344 280.355469 274.765625 277.152344 C 275.023438 276.597656 275.238281 276.023438 275.238281 275.886719 C 275.238281 275.726562 275.417969 275.390625 275.636719 275.117188 C 275.855469 274.839844 276.074219 274.304688 276.132812 273.890625 C 276.210938 273.496094 276.429688 272.863281 276.628906 272.464844 C 276.84375 272.089844 277.0625 271.378906 277.144531 270.886719 C 277.222656 270.410156 277.402344 269.835938 277.539062 269.621094 C 277.699219 269.402344 277.816406 268.808594 277.816406 268.277344 C 277.816406 267.742188 277.957031 267.128906 278.132812 266.851562 C 278.371094 266.496094 278.429688 266.0625 278.371094 265.269531 C 278.3125 264.5 278.351562 264.164062 278.53125 264.105469 C 279.007812 263.925781 279.066406 263.078125 278.648438 262.148438 L 278.253906 261.257812 L 278.730469 261.140625 C 279.738281 260.882812 279.066406 259.398438 277.320312 258.054688 C 276.726562 257.601562 276.230469 257.1875 276.230469 257.144531 C 276.230469 257.085938 276.667969 257.285156 277.222656 257.5625 C 278.410156 258.175781 279.203125 258.214844 279.203125 257.679688 C 279.203125 257.046875 276.867188 255.585938 273.871094 254.320312 C 272.085938 253.566406 270.222656 252.027344 266.515625 248.25 C 261.203125 242.832031 255.96875 235.65625 251.746094 228.046875 L 250.417969 225.636719 L 251.863281 223.976562 C 254.601562 220.910156 255.335938 220 256.839844 217.925781 C 263.125 209.265625 266.4375 200.804688 266.058594 194.242188 C 265.902344 191.121094 264.96875 189.125 263.226562 188.136719 C 262.390625 187.640625 261.082031 187.582031 258.269531 187.878906 Z M 263.207031 188.726562 C 264.136719 189.441406 264.671875 190.210938 265.1875 191.59375 C 265.742188 193.117188 265.78125 196.890625 265.265625 199.34375 C 263.640625 206.933594 258.722656 215.710938 251.863281 223.222656 L 250.179688 225.082031 L 249.804688 224.332031 C 249.347656 223.460938 249.289062 223.597656 251.230469 221.128906 C 253.332031 218.460938 255.175781 215.730469 256.859375 212.785156 C 260.171875 207.035156 262.253906 200.824219 262.492188 196.042969 C 262.671875 192.386719 262.09375 190.210938 260.589844 188.726562 L 259.875 188.035156 L 261.183594 188.113281 C 262.234375 188.175781 262.648438 188.292969 263.207031 188.726562 Z M 257.496094 188.667969 C 257.4375 188.765625 257.296875 188.867188 257.179688 188.867188 C 257.078125 188.867188 257 188.765625 257 188.667969 C 257 188.550781 257.136719 188.472656 257.316406 188.472656 C 257.476562 188.472656 257.554688 188.550781 257.496094 188.667969 Z M 259.753906 188.746094 C 260.410156 189.082031 261.222656 190.210938 261.679688 191.4375 C 262.175781 192.722656 262.175781 197.070312 261.699219 199.34375 C 260.546875 204.761719 257.714844 210.949219 253.726562 216.859375 C 252.222656 219.074219 249.347656 222.867188 249.148438 222.867188 C 249.109375 222.867188 248.910156 222.511719 248.691406 222.058594 L 248.296875 221.246094 L 249.84375 218.953125 C 253.3125 213.753906 255.632812 209.226562 257.160156 204.582031 C 258.644531 200.132812 258.882812 198.828125 258.882812 194.996094 C 258.882812 191.710938 258.882812 191.710938 258.269531 190.46875 L 257.652344 189.222656 L 258.269531 188.847656 C 259.003906 188.390625 259.042969 188.390625 259.753906 188.746094 Z M 254.738281 189.28125 C 254.460938 189.5 254.125 189.617188 254.007812 189.539062 C 253.847656 189.460938 253.945312 189.320312 254.242188 189.144531 C 254.976562 188.726562 255.335938 188.828125 254.738281 189.28125 Z M 255.828125 189.855469 C 254.976562 190.585938 254.621094 190.683594 254.621094 190.191406 C 254.621094 189.855469 255.828125 189.0625 256.304688 189.0625 C 256.625 189.082031 256.523438 189.222656 255.828125 189.855469 Z M 252.023438 190.132812 C 251.566406 190.605469 251.308594 190.746094 251.210938 190.585938 C 250.972656 190.210938 251.03125 190.070312 251.605469 189.777344 C 252.539062 189.261719 252.71875 189.417969 252.023438 190.132812 Z M 253.628906 190.03125 C 253.628906 190.113281 253.273438 190.566406 252.835938 191.058594 C 252.398438 191.535156 252.042969 192.007812 252.042969 192.128906 C 252.042969 192.425781 251.648438 191.773438 251.648438 191.457031 C 251.648438 191.101562 253.234375 189.636719 253.449219 189.777344 C 253.550781 189.835938 253.628906 189.953125 253.628906 190.03125 Z M 257.871094 190.921875 C 258.386719 191.929688 258.46875 192.34375 258.546875 194.242188 C 258.824219 200.765625 255.613281 209.40625 249.503906 218.558594 C 248.792969 219.625 248.15625 220.496094 248.078125 220.496094 C 247.9375 220.496094 247.285156 218.972656 247.285156 218.65625 C 247.285156 218.597656 247.703125 217.847656 248.195312 216.996094 C 251.113281 212.09375 253.609375 206.105469 254.71875 201.4375 C 255.613281 197.664062 255.828125 193.355469 255.214844 191.753906 C 255.058594 191.316406 255.136719 191.179688 255.96875 190.46875 C 256.484375 190.03125 257 189.695312 257.097656 189.714844 C 257.21875 189.753906 257.554688 190.289062 257.871094 190.921875 Z M 249.308594 191.316406 C 248.613281 192.324219 248.554688 192.363281 248.335938 191.949219 C 248.117188 191.574219 248.175781 191.457031 248.773438 190.882812 C 249.882812 189.855469 250.160156 190.09375 249.308594 191.316406 Z M 253.332031 192.5625 C 252.699219 193.292969 252.140625 193.945312 252.121094 193.984375 C 252.082031 194.027344 252.042969 193.808594 252.042969 193.492188 C 252.042969 193.097656 252.359375 192.523438 253.074219 191.652344 C 254.007812 190.488281 254.105469 190.40625 254.285156 190.785156 C 254.441406 191.140625 254.265625 191.4375 253.332031 192.5625 Z M 250.855469 191.238281 C 250.855469 191.4375 250.773438 191.671875 250.65625 191.734375 C 250.554688 191.792969 250.101562 192.484375 249.683594 193.253906 C 248.929688 194.617188 248.890625 194.660156 248.753906 194.125 C 248.59375 193.492188 248.890625 192.78125 249.84375 191.476562 C 250.476562 190.625 250.855469 190.546875 250.855469 191.238281 Z M 247.34375 191.355469 C 247.402344 191.4375 247.226562 191.949219 246.949219 192.503906 C 246.652344 193.058594 246.214844 194.125 245.976562 194.894531 L 245.519531 196.28125 L 245.5 194.738281 C 245.5 193.097656 245.640625 192.640625 246.453125 191.773438 C 246.988281 191.21875 247.125 191.160156 247.34375 191.355469 Z M 255.136719 193.984375 C 255.632812 199.144531 252.636719 208.398438 247.742188 216.800781 L 246.949219 218.144531 L 246.492188 216.957031 L 246.054688 215.769531 L 247.144531 213.4375 C 250.082031 207.191406 251.605469 202.089844 252.042969 197.109375 C 252.261719 194.578125 252.203125 194.699219 254.007812 192.445312 L 254.699219 191.59375 L 254.859375 192.128906 C 254.9375 192.445312 255.058594 193.273438 255.136719 193.984375 Z M 251.152344 193.292969 C 250.953125 193.628906 250.296875 194.796875 249.722656 195.882812 L 248.671875 197.859375 L 248.792969 196.871094 C 248.910156 195.902344 249.605469 194.324219 250.636719 192.660156 C 251.113281 191.890625 251.171875 191.851562 251.347656 192.246094 C 251.488281 192.5625 251.429688 192.820312 251.152344 193.292969 Z M 248.078125 192.9375 C 248.078125 193.175781 247.859375 193.867188 247.582031 194.5 C 246.609375 196.695312 245.441406 201.617188 245.023438 205.371094 C 244.984375 205.808594 244.964844 205.054688 245.023438 203.691406 C 245.144531 199.816406 245.917969 195.984375 247.125 193.355469 C 247.742188 192.050781 248.058594 191.890625 248.078125 192.9375 Z M 244.847656 193.511719 C 243.972656 197.1875 243.734375 199.265625 243.695312 203.199219 C 243.65625 207.035156 243.359375 205.414062 243.199219 200.429688 C 243.0625 196.398438 243.339844 193.925781 244.035156 192.859375 C 244.351562 192.363281 244.371094 192.363281 244.648438 192.742188 C 244.808594 192.9375 244.886719 193.292969 244.847656 193.511719 Z M 250.953125 195.984375 C 250.554688 196.636719 249.804688 198.078125 249.246094 199.183594 C 248.472656 200.804688 248.296875 201.0625 248.394531 200.429688 C 248.574219 199.421875 249.644531 196.871094 250.714844 195.015625 C 251.507812 193.609375 251.546875 193.570312 251.605469 194.183594 C 251.648438 194.617188 251.46875 195.132812 250.953125 195.984375 Z M 241.992188 197.5625 L 241.851562 199.835938 L 241.675781 197.960938 C 241.574219 196.933594 241.574219 195.585938 241.65625 194.996094 L 241.792969 193.90625 L 241.972656 194.597656 C 242.050781 194.976562 242.070312 196.320312 241.992188 197.5625 Z M 248.414062 195.371094 C 248.355469 195.765625 247.898438 197.226562 247.402344 198.652344 C 246.910156 200.054688 246.292969 202.289062 246.015625 203.59375 C 245.421875 206.460938 245.34375 205.886719 245.898438 202.605469 C 246.332031 199.878906 246.867188 197.78125 247.601562 195.804688 C 248.136719 194.363281 248.59375 194.105469 248.414062 195.371094 Z M 244.667969 200.824219 C 244.25 203.316406 244.210938 203.496094 244.152344 202.507812 C 244.074219 201.203125 244.410156 197.484375 244.765625 195.863281 L 245.003906 194.699219 L 245.066406 196.378906 C 245.105469 197.464844 244.964844 199.046875 244.667969 200.824219 Z M 251.328125 199.421875 C 250.617188 203.691406 248.535156 209.800781 246.253906 214.230469 L 245.777344 215.199219 L 245.539062 214.40625 C 245.34375 213.753906 245.363281 213.320312 245.699219 211.699219 C 246.910156 205.867188 248.691406 200.925781 251.269531 196.378906 L 251.546875 195.882812 L 251.605469 196.65625 C 251.648438 197.070312 251.527344 198.316406 251.328125 199.421875 Z M 248 199.480469 C 247.503906 201.320312 246.3125 204.996094 246.292969 204.742188 C 246.273438 203.832031 248.136719 197.226562 248.238281 197.898438 C 248.277344 198.136719 248.15625 198.847656 248 199.480469 Z M 242.84375 207.546875 C 242.941406 208.199219 242.785156 208.832031 241.933594 211.203125 C 239.949219 216.640625 237.609375 221.523438 234.496094 226.742188 C 232.792969 229.609375 229.28125 234.730469 229.023438 234.730469 C 228.628906 234.730469 228.707031 234.332031 229.34375 233.40625 C 231.484375 230.222656 234.675781 224.113281 236.835938 219.011719 C 238.859375 214.269531 241.160156 206.894531 241.65625 203.59375 L 241.792969 202.605469 L 242.25 204.679688 C 242.507812 205.828125 242.765625 207.113281 242.84375 207.546875 Z M 244.449219 207.308594 C 244.410156 207.765625 244.390625 207.328125 244.390625 206.359375 C 244.390625 205.371094 244.410156 205.015625 244.449219 205.53125 C 244.488281 206.046875 244.488281 206.855469 244.449219 207.308594 Z M 246.234375 205.511719 C 246.175781 205.667969 246.117188 205.609375 246.117188 205.394531 C 246.09375 205.175781 246.15625 205.054688 246.214844 205.136719 C 246.273438 205.195312 246.292969 205.371094 246.234375 205.511719 Z M 243.261719 206.699219 C 243.199219 206.855469 243.140625 206.796875 243.140625 206.578125 C 243.121094 206.359375 243.179688 206.242188 243.242188 206.320312 C 243.300781 206.382812 243.320312 206.558594 243.261719 206.699219 Z M 245.441406 206.894531 C 245.382812 207.054688 245.324219 206.992188 245.324219 206.777344 C 245.300781 206.558594 245.363281 206.441406 245.421875 206.519531 C 245.480469 206.578125 245.5 206.757812 245.441406 206.894531 Z M 243.023438 215.199219 C 240.265625 221.128906 236.480469 227.21875 232.238281 232.554688 C 230.375 234.886719 230.292969 234.964844 229.976562 234.886719 C 229.796875 234.847656 230.3125 233.957031 231.445312 232.355469 C 235.945312 225.992188 240.664062 216.757812 242.746094 210.234375 L 243.222656 208.773438 L 243.777344 210.589844 L 244.332031 212.390625 Z M 244.507812 216.027344 C 244.132812 218.421875 244.191406 218.261719 242.46875 220.988281 C 239.789062 225.21875 237.570312 228.226562 234.695312 231.566406 C 231.960938 234.710938 231.304688 235.382812 231.066406 235.242188 C 230.929688 235.164062 231.640625 234.117188 232.910156 232.476562 C 236.957031 227.316406 240.246094 222.039062 243.0625 216.207031 C 244.785156 212.648438 245.042969 212.609375 244.507812 216.027344 Z M 243.992188 221.128906 C 243.835938 222.925781 243.894531 222.828125 241.65625 225.636719 C 238.085938 230.082031 232.871094 235.519531 232.15625 235.519531 C 231.800781 235.519531 231.878906 235.382812 232.652344 234.570312 C 233.148438 234.058594 233.863281 233.285156 234.238281 232.871094 C 234.597656 232.4375 235.25 231.683594 235.6875 231.191406 C 237.808594 228.738281 242.625 221.996094 243.695312 219.941406 C 243.816406 219.703125 243.972656 219.507812 244.035156 219.507812 C 244.09375 219.507812 244.074219 220.238281 243.992188 221.128906 Z M 244.449219 221.722656 C 244.390625 221.859375 244.351562 221.761719 244.351562 221.484375 C 244.351562 221.207031 244.390625 221.109375 244.449219 221.226562 C 244.488281 221.367188 244.488281 221.601562 244.449219 221.722656 Z M 245.441406 221.917969 C 245.382812 222.058594 245.34375 221.957031 245.34375 221.683594 C 245.34375 221.40625 245.382812 221.304688 245.441406 221.425781 C 245.480469 221.5625 245.480469 221.800781 245.441406 221.917969 Z M 246.035156 222.117188 C 245.976562 222.253906 245.9375 222.15625 245.9375 221.878906 C 245.9375 221.601562 245.976562 221.503906 246.035156 221.621094 C 246.074219 221.761719 246.074219 221.996094 246.035156 222.117188 Z M 246.628906 222.117188 C 246.570312 222.273438 246.511719 222.214844 246.511719 221.996094 C 246.492188 221.78125 246.550781 221.660156 246.609375 221.742188 C 246.671875 221.800781 246.691406 221.976562 246.628906 222.117188 Z M 248.710938 223.539062 C 248.652344 223.660156 248.453125 223.382812 248.257812 222.945312 C 247.742188 221.800781 247.820312 221.445312 248.355469 222.472656 C 248.613281 222.964844 248.773438 223.441406 248.710938 223.539062 Z M 245.042969 224.09375 C 245.003906 224.449219 244.964844 224.171875 244.964844 223.460938 C 244.964844 222.75 245.003906 222.472656 245.042969 222.808594 C 245.085938 223.164062 245.085938 223.757812 245.042969 224.09375 Z M 245.640625 223.5 C 245.601562 223.757812 245.558594 223.597656 245.558594 223.164062 C 245.539062 222.730469 245.578125 222.53125 245.640625 222.710938 C 245.679688 222.90625 245.679688 223.261719 245.640625 223.5 Z M 246.234375 222.90625 C 246.175781 223.066406 246.117188 223.007812 246.117188 222.789062 C 246.09375 222.570312 246.15625 222.453125 246.214844 222.53125 C 246.273438 222.589844 246.292969 222.769531 246.234375 222.90625 Z M 247.839844 223.242188 C 248.136719 224.171875 248.136719 224.46875 247.859375 223.996094 C 247.542969 223.460938 247.285156 222.472656 247.464844 222.472656 C 247.542969 222.472656 247.722656 222.808594 247.839844 223.242188 Z M 244.449219 224.6875 C 244.410156 225.042969 244.371094 224.765625 244.371094 224.054688 C 244.371094 223.34375 244.410156 223.066406 244.449219 223.402344 C 244.488281 223.757812 244.488281 224.351562 244.449219 224.6875 Z M 247.445312 224.746094 C 247.445312 225.042969 247.382812 225.003906 247.1875 224.546875 C 247.027344 224.210938 246.910156 223.738281 246.910156 223.460938 C 246.910156 223.027344 246.949219 223.046875 247.1875 223.660156 C 247.324219 224.035156 247.445312 224.527344 247.445312 224.746094 Z M 243.914062 224.804688 L 243.914062 225.953125 L 241.199219 228.796875 C 237.90625 232.238281 233.84375 235.914062 233.328125 235.914062 C 233.070312 235.914062 233.785156 235.066406 235.609375 233.1875 C 238.203125 230.558594 241.65625 226.566406 243.0625 224.628906 C 243.4375 224.09375 243.796875 223.660156 243.835938 223.660156 C 243.875 223.660156 243.914062 224.171875 243.914062 224.804688 Z M 246.769531 225.636719 C 246.609375 225.992188 246.332031 225.082031 246.332031 224.152344 C 246.332031 223.640625 246.375 223.679688 246.609375 224.449219 C 246.769531 224.945312 246.828125 225.476562 246.769531 225.636719 Z M 249.605469 225.597656 C 249.546875 225.8125 249.386719 225.636719 249.109375 225.042969 C 248.890625 224.566406 248.753906 224.09375 248.8125 223.976562 C 248.96875 223.71875 249.703125 225.199219 249.605469 225.597656 Z M 246.054688 225.398438 C 246.253906 226.207031 246.054688 226.742188 245.816406 226.109375 C 245.679688 225.753906 245.660156 224.332031 245.777344 224.46875 C 245.835938 224.527344 245.957031 224.945312 246.054688 225.398438 Z M 248.890625 226.484375 C 248.753906 226.625 248.652344 226.566406 248.574219 226.308594 C 248.496094 226.109375 248.355469 225.734375 248.257812 225.476562 C 247.898438 224.609375 248.335938 224.566406 248.710938 225.4375 C 248.949219 226.011719 249.011719 226.367188 248.890625 226.484375 Z M 245.363281 227.019531 C 245.183594 227.433594 244.886719 225.851562 245.066406 225.339844 C 245.144531 225.042969 245.222656 225.179688 245.34375 225.832031 C 245.421875 226.328125 245.441406 226.859375 245.363281 227.019531 Z M 248.039062 226.167969 C 248.257812 226.902344 248.175781 227.394531 247.878906 227.078125 C 247.621094 226.820312 247.425781 225.4375 247.621094 225.4375 C 247.722656 225.4375 247.917969 225.753906 248.039062 226.167969 Z M 244.707031 227.019531 C 244.707031 227.433594 244.628906 227.847656 244.507812 227.910156 C 244.390625 227.988281 244.3125 227.652344 244.3125 227.019531 C 244.3125 226.386719 244.390625 226.050781 244.507812 226.128906 C 244.628906 226.1875 244.707031 226.605469 244.707031 227.019531 Z M 250.515625 226.859375 C 254.066406 233.109375 253.847656 232.773438 255.871094 235.816406 C 259.578125 241.371094 264.214844 246.945312 268.578125 251.039062 L 270.738281 253.074219 L 268.359375 252.34375 L 265.960938 251.628906 L 264.296875 249.753906 C 259.179688 243.980469 254.5 236.765625 250.773438 228.835938 C 249.804688 226.761719 249.585938 226.03125 249.960938 226.03125 C 250 226.03125 250.257812 226.40625 250.515625 226.859375 Z M 247.324219 227.15625 C 247.363281 227.511719 247.324219 227.789062 247.246094 227.789062 C 247.046875 227.808594 246.691406 226.585938 246.828125 226.367188 C 247.007812 226.070312 247.265625 226.503906 247.324219 227.15625 Z M 242.367188 230.003906 C 239.097656 233.109375 234.972656 236.371094 234.457031 236.269531 C 234.21875 236.230469 234.835938 235.578125 236.421875 234.195312 C 238.5625 232.316406 243.5 227.296875 243.714844 226.761719 C 243.777344 226.625 243.835938 226.960938 243.875 227.511719 L 243.953125 228.5 Z M 251.113281 230.617188 C 252.140625 232.710938 253.390625 235.105469 253.867188 235.914062 C 254.34375 236.726562 254.917969 237.695312 255.136719 238.050781 C 257.179688 241.550781 260.847656 246.589844 263.800781 249.988281 C 264.453125 250.742188 264.890625 251.335938 264.8125 251.335938 C 264.515625 251.316406 261.539062 250.582031 261.480469 250.523438 C 261.441406 250.484375 260.925781 249.773438 260.332031 248.960938 C 256.304688 243.445312 252.183594 235.835938 249.644531 229.234375 C 248.96875 227.472656 248.851562 226.820312 249.167969 226.820312 C 249.207031 226.820312 250.082031 228.542969 251.113281 230.617188 Z M 246.550781 227.75 C 246.671875 228.402344 246.453125 229.035156 246.214844 228.777344 C 246.136719 228.699219 246.035156 227.492188 246.074219 227.15625 C 246.136719 226.722656 246.453125 227.117188 246.550781 227.75 Z M 245.757812 229.429688 C 245.558594 229.785156 245.34375 229.550781 245.242188 228.859375 C 245.164062 228.402344 245.203125 228.027344 245.363281 227.847656 C 245.558594 227.59375 245.621094 227.691406 245.71875 228.421875 C 245.796875 228.898438 245.816406 229.351562 245.757812 229.429688 Z M 249.761719 230.773438 C 251.347656 234.75 254.285156 240.621094 256.304688 243.824219 C 257.734375 246.074219 259.539062 248.785156 260.113281 249.496094 C 260.726562 250.265625 260.746094 250.347656 260.390625 250.347656 C 260.171875 250.347656 259.695312 250.089844 259.339844 249.792969 C 258.980469 249.496094 258.210938 248.882812 257.632812 248.46875 C 256.542969 247.65625 255.730469 246.433594 253.847656 242.675781 C 251.289062 237.59375 247.800781 228.421875 248.195312 227.789062 C 248.394531 227.453125 248.554688 227.75 249.761719 230.773438 Z M 248.851562 231.902344 C 249.484375 233.71875 250.457031 236.332031 251.03125 237.695312 C 251.984375 239.929688 254.640625 245.421875 254.996094 245.898438 C 255.613281 246.707031 255.273438 246.6875 254.027344 245.878906 C 252.738281 245.007812 252.636719 244.890625 251.984375 243.367188 C 249.84375 238.425781 247.046875 229.492188 247.363281 228.679688 C 247.445312 228.5 247.542969 228.402344 247.601562 228.460938 C 247.660156 228.523438 248.238281 230.0625 248.851562 231.902344 Z M 244.90625 229.609375 C 244.90625 229.90625 244.765625 230.242188 244.609375 230.378906 C 244.351562 230.597656 244.3125 230.5 244.3125 229.746094 C 244.3125 229.253906 244.371094 228.796875 244.449219 228.738281 C 244.648438 228.523438 244.90625 229.015625 244.90625 229.609375 Z M 248.910156 236.488281 C 249.546875 238.484375 250.617188 241.3125 251.804688 244.199219 C 251.863281 244.355469 251.507812 244.257812 250.875 243.902344 L 249.84375 243.328125 L 249.070312 240.855469 C 247.980469 237.359375 247.5625 235.835938 246.886719 232.476562 C 246.414062 230.144531 246.332031 229.46875 246.53125 229.253906 C 246.730469 229.015625 246.886719 229.429688 247.425781 231.488281 C 247.800781 232.871094 248.453125 235.125 248.910156 236.488281 Z M 243.179688 231.527344 C 242.03125 232.535156 238.046875 235.480469 236.957031 236.152344 C 236.421875 236.46875 235.84375 236.707031 235.648438 236.667969 C 235.429688 236.625 236.023438 236.035156 237.492188 234.90625 C 238.679688 233.957031 240.582031 232.355469 241.734375 231.328125 L 243.816406 229.46875 L 243.875 230.164062 C 243.933594 230.773438 243.835938 230.953125 243.179688 231.527344 Z M 246.492188 232.753906 C 247.085938 235.636719 248 239.136719 248.730469 241.390625 C 249.011719 242.179688 249.167969 242.832031 249.109375 242.832031 C 249.070312 242.832031 248.671875 242.636719 248.257812 242.398438 C 247.523438 241.984375 247.484375 241.925781 246.988281 239.808594 C 246.570312 237.992188 245.835938 233.917969 245.441406 230.933594 C 245.324219 230.203125 245.421875 229.925781 245.757812 230.042969 C 245.859375 230.0625 246.195312 231.289062 246.492188 232.753906 Z M 245.28125 232.792969 C 245.480469 234.453125 246.117188 237.8125 246.828125 241.113281 L 246.949219 241.667969 L 246.234375 241.332031 C 245.460938 240.957031 245.421875 240.796875 244.90625 237.003906 C 244.332031 232.554688 244.332031 230.773438 244.886719 230.773438 C 244.964844 230.773438 245.144531 231.683594 245.28125 232.792969 Z M 244.171875 233.957031 C 244.25 235.085938 244.488281 237.042969 244.667969 238.308594 L 245.023438 240.601562 L 242.128906 239.316406 C 240.542969 238.625 238.660156 237.832031 237.90625 237.554688 L 236.578125 237.0625 L 238.285156 235.835938 C 239.234375 235.183594 240.820312 233.996094 241.8125 233.207031 C 242.804688 232.414062 243.714844 231.804688 243.816406 231.84375 C 243.933594 231.863281 244.09375 232.8125 244.171875 233.957031 Z M 216.554688 232.949219 C 219.132812 233.1875 224.246094 233.976562 226.410156 234.492188 L 227.855469 234.828125 L 227.300781 235.636719 C 226.765625 236.429688 226.765625 236.429688 225.875 236.269531 C 221.132812 235.441406 213.582031 235.085938 209.082031 235.5 C 199.167969 236.429688 191.832031 239.929688 191.058594 244.097656 L 190.921875 244.890625 L 190.464844 244.316406 C 190.226562 244.019531 189.910156 243.367188 189.769531 242.894531 C 189.570312 242.140625 189.570312 241.84375 189.890625 240.898438 C 190.363281 239.335938 192.425781 237.296875 194.648438 236.171875 C 197.738281 234.589844 202.003906 233.40625 206.246094 232.96875 C 208.664062 232.730469 213.898438 232.710938 216.554688 232.949219 Z M 228.390625 235.777344 C 227.675781 236.707031 227.320312 236.6875 227.855469 235.757812 C 228.132812 235.242188 228.410156 235.003906 228.589844 235.066406 C 228.808594 235.144531 228.769531 235.300781 228.390625 235.777344 Z M 229.402344 235.953125 C 229.125 236.308594 228.746094 236.644531 228.550781 236.667969 C 228.273438 236.726562 228.332031 236.585938 228.769531 236.035156 C 229.085938 235.636719 229.460938 235.320312 229.621094 235.320312 C 229.796875 235.320312 229.738281 235.519531 229.402344 235.953125 Z M 230.253906 236.371094 C 229.917969 236.707031 229.582031 236.921875 229.519531 236.84375 C 229.324219 236.644531 230.453125 235.5 230.691406 235.65625 C 230.789062 235.71875 230.589844 236.035156 230.253906 236.371094 Z M 223.296875 236.308594 C 224.980469 236.546875 226.386719 236.765625 226.429688 236.804688 C 226.449219 236.824219 226.230469 237.21875 225.953125 237.675781 L 225.417969 238.484375 L 223.710938 238.328125 C 220.460938 238.050781 212.09375 238.1875 209.515625 238.5625 C 202.558594 239.570312 197.363281 241.507812 194.628906 244.136719 C 193.953125 244.789062 193.320312 245.5625 193.257812 245.859375 C 193.179688 246.15625 193.082031 246.390625 193.042969 246.390625 C 192.683594 246.390625 191.554688 245.464844 191.457031 245.085938 C 191.238281 244.199219 191.949219 242.8125 193.339844 241.449219 C 196.3125 238.542969 201.765625 236.667969 209.714844 235.835938 C 210.152344 235.796875 212.6875 235.777344 215.367188 235.816406 C 219.054688 235.855469 220.957031 235.972656 223.296875 236.308594 Z M 231.703125 236.332031 C 231.265625 236.824219 230.632812 237.179688 230.492188 237.023438 C 230.292969 236.84375 231.304688 235.914062 231.703125 235.914062 C 232.078125 235.914062 232.078125 235.914062 231.703125 236.332031 Z M 233.011719 236.410156 C 233.011719 236.585938 231.582031 237.515625 231.464844 237.417969 C 231.285156 237.21875 232.476562 236.152344 232.773438 236.25 C 232.890625 236.308594 233.011719 236.371094 233.011719 236.410156 Z M 233.527344 237.21875 C 232.554688 237.871094 232.175781 237.792969 232.992188 237.101562 C 233.347656 236.804688 233.785156 236.585938 233.941406 236.644531 C 234.140625 236.726562 234.023438 236.882812 233.527344 237.21875 Z M 226.84375 237.695312 C 226.488281 238.128906 226.171875 238.445312 226.109375 238.40625 C 225.992188 238.265625 227.082031 236.902344 227.300781 236.902344 C 227.398438 236.902344 227.179688 237.257812 226.84375 237.695312 Z M 235.25 237.042969 C 235.449219 237.21875 234.042969 238.128906 233.785156 237.992188 C 233.664062 237.910156 233.863281 237.65625 234.21875 237.378906 C 234.914062 236.863281 235.050781 236.824219 235.25 237.042969 Z M 228.035156 237.4375 C 227.4375 238.1875 226.863281 238.761719 226.863281 238.625 C 226.863281 238.386719 227.933594 237.101562 228.132812 237.101562 C 228.230469 237.101562 228.171875 237.257812 228.035156 237.4375 Z M 228.648438 237.992188 C 228.273438 238.367188 227.894531 238.683594 227.777344 238.683594 C 227.675781 238.683594 227.875 238.367188 228.253906 237.992188 C 228.628906 237.613281 229.003906 237.296875 229.125 237.296875 C 229.222656 237.296875 229.023438 237.613281 228.648438 237.992188 Z M 239.949219 238.878906 C 244.09375 240.621094 245.300781 241.292969 245.300781 241.945312 C 245.300781 241.964844 244.390625 241.628906 243.261719 241.152344 C 242.148438 240.699219 239.929688 239.90625 238.363281 239.394531 C 234.320312 238.070312 234.617188 238.246094 235.390625 237.753906 C 236.164062 237.277344 236.023438 237.238281 239.949219 238.878906 Z M 229.519531 238.1875 C 228.511719 239.058594 228.152344 239.078125 229.046875 238.1875 C 229.421875 237.832031 229.859375 237.515625 230.015625 237.515625 C 230.175781 237.496094 229.957031 237.8125 229.519531 238.1875 Z M 231.226562 237.792969 C 231.226562 237.890625 229.5 239.078125 229.34375 239.078125 C 229.261719 239.078125 229.582031 238.761719 230.035156 238.386719 C 230.789062 237.753906 231.226562 237.535156 231.226562 237.792969 Z M 231.878906 238.386719 C 230.808594 239.097656 230.433594 239.296875 230.433594 239.136719 C 230.433594 238.859375 231.878906 237.910156 232.078125 238.03125 C 232.175781 238.089844 232.078125 238.246094 231.878906 238.386719 Z M 233.40625 238.367188 C 233.40625 238.542969 231.582031 239.492188 231.484375 239.394531 C 231.34375 239.253906 231.304688 239.277344 232.21875 238.722656 C 232.851562 238.328125 233.40625 238.167969 233.40625 238.367188 Z M 222.660156 238.664062 C 223.792969 238.761719 224.761719 238.898438 224.824219 238.960938 C 224.902344 239.019531 224.683594 239.414062 224.347656 239.828125 L 223.75 240.558594 L 219.707031 240.699219 C 211.359375 240.976562 205.136719 242.222656 200.199219 244.613281 C 199.109375 245.148438 197.679688 246.015625 197.027344 246.550781 L 195.835938 247.519531 L 194.707031 247.144531 C 194.074219 246.925781 193.558594 246.648438 193.558594 246.511719 C 193.558594 246.035156 194.726562 244.632812 195.835938 243.761719 C 199.128906 241.191406 205.988281 239.136719 212.984375 238.625 C 214.890625 238.484375 220.71875 238.503906 222.660156 238.664062 Z M 237.371094 239.511719 C 241.792969 240.917969 245.5 242.457031 245.5 242.914062 C 245.5 243.128906 244.945312 242.992188 243.179688 242.398438 C 241.890625 241.964844 238.976562 241.132812 236.699219 240.558594 L 232.535156 239.53125 L 233.328125 239.019531 C 233.804688 238.703125 234.257812 238.5625 234.496094 238.625 C 234.714844 238.683594 236.003906 239.097656 237.371094 239.511719 Z M 225.675781 239.15625 C 225.675781 239.195312 225.515625 239.355469 225.335938 239.492188 C 225.019531 239.75 225 239.730469 225.257812 239.414062 C 225.515625 239.097656 225.675781 239 225.675781 239.15625 Z M 226.46875 239.15625 C 226.46875 239.195312 226.308594 239.355469 226.128906 239.492188 C 225.8125 239.75 225.792969 239.730469 226.050781 239.414062 C 226.308594 239.097656 226.46875 239 226.46875 239.15625 Z M 228.847656 239.550781 C 228.847656 239.59375 228.609375 239.769531 228.3125 239.949219 L 227.757812 240.285156 L 228.230469 239.886719 C 228.6875 239.472656 228.847656 239.394531 228.847656 239.550781 Z M 230.015625 239.53125 C 229.976562 239.570312 229.621094 239.808594 229.242188 240.046875 L 228.550781 240.5 L 229.144531 239.988281 C 229.480469 239.710938 229.820312 239.472656 229.917969 239.472656 C 230.015625 239.472656 230.054688 239.492188 230.015625 239.53125 Z M 231.027344 239.769531 C 231.027344 239.808594 230.730469 240.007812 230.394531 240.164062 L 229.738281 240.480469 L 230.234375 240.085938 C 230.710938 239.691406 231.027344 239.570312 231.027344 239.769531 Z M 236.183594 240.875 C 241.753906 242.222656 246.214844 243.84375 245.679688 244.296875 C 245.640625 244.335938 244.527344 244.058594 243.222656 243.683594 C 240.347656 242.875 234.835938 241.765625 232.078125 241.429688 C 230.949219 241.292969 230.035156 241.132812 230.035156 241.054688 C 230.035156 240.996094 230.414062 240.71875 230.890625 240.421875 C 231.859375 239.808594 231.640625 239.789062 236.183594 240.875 Z M 223.296875 241.171875 C 223.296875 241.234375 222.9375 241.707031 222.503906 242.222656 L 221.691406 243.171875 L 219.589844 243.289062 C 213.363281 243.683594 206.679688 245.246094 202.140625 247.402344 C 200.375 248.230469 199.980469 248.289062 197.898438 247.953125 C 196.3125 247.675781 196.3125 247.617188 198.175781 246.351562 C 202.914062 243.148438 211.28125 241.171875 220.679688 241.074219 C 222.105469 241.074219 223.296875 241.113281 223.296875 241.171875 Z M 232.117188 241.84375 C 238.027344 242.714844 245.796875 244.574219 245.957031 245.1875 C 246.015625 245.464844 245.539062 245.402344 242.449219 244.789062 C 237.90625 243.882812 234.714844 243.484375 229.820312 243.191406 L 225.933594 242.972656 L 227.4375 242.222656 C 228.273438 241.804688 229.046875 241.46875 229.144531 241.46875 C 229.261719 241.449219 230.589844 241.628906 232.117188 241.84375 Z M 246.652344 242.042969 C 247.1875 242.378906 247.503906 242.832031 247.1875 242.832031 C 246.847656 242.832031 245.699219 242.121094 245.699219 241.90625 C 245.699219 241.550781 245.878906 241.589844 246.652344 242.042969 Z M 249.464844 243.722656 C 249.683594 243.980469 249.523438 243.941406 248.8125 243.605469 C 248.316406 243.367188 247.839844 243.03125 247.800781 242.894531 C 247.660156 242.558594 249.089844 243.269531 249.464844 243.722656 Z M 246.769531 243.171875 C 247.503906 243.507812 248 244.199219 247.34375 243.921875 C 247.144531 243.84375 246.75 243.683594 246.453125 243.585938 C 246.136719 243.484375 245.898438 243.269531 245.898438 243.109375 C 245.898438 242.753906 245.9375 242.753906 246.769531 243.171875 Z M 233.1875 243.84375 C 236.125 244.117188 238.71875 244.496094 242.488281 245.246094 C 245.441406 245.820312 246.570312 246.175781 246.273438 246.472656 C 246.214844 246.53125 244.964844 246.410156 243.5 246.195312 C 239.492188 245.621094 237.09375 245.402344 232.515625 245.285156 C 228.746094 245.167969 222.640625 245.402344 220.835938 245.738281 L 220.222656 245.839844 L 220.621094 245.441406 C 220.835938 245.207031 221.867188 244.671875 222.898438 244.21875 L 224.78125 243.40625 L 227.933594 243.527344 C 229.660156 243.585938 232.019531 243.722656 233.1875 243.84375 Z M 220.796875 244.21875 C 219.113281 245.898438 207.8125 248.429688 202.378906 248.347656 L 201.386719 248.328125 L 202.972656 247.578125 C 207.078125 245.621094 215.367188 243.761719 220.421875 243.644531 L 221.414062 243.625 Z M 249.824219 244.789062 C 249.863281 244.910156 249.503906 244.832031 249.03125 244.613281 C 248.574219 244.414062 248.15625 244.136719 248.117188 244.039062 C 248.078125 243.921875 248.433594 244 248.910156 244.21875 C 249.367188 244.414062 249.78125 244.691406 249.824219 244.789062 Z M 247.085938 244.335938 C 247.820312 244.632812 248.15625 245.007812 247.679688 245.007812 C 247.265625 245.007812 246.09375 244.433594 246.09375 244.238281 C 246.09375 243.960938 246.136719 243.960938 247.085938 244.335938 Z M 251.25 244.632812 C 251.785156 244.96875 252.242188 245.285156 252.242188 245.34375 C 252.242188 245.441406 250.476562 244.476562 250.179688 244.199219 C 249.78125 243.84375 250.296875 244.039062 251.25 244.632812 Z M 250 245.582031 C 250.535156 245.878906 249.960938 245.839844 249.1875 245.523438 C 248.8125 245.363281 248.453125 245.148438 248.375 245.027344 C 248.238281 244.789062 249.246094 245.148438 250 245.582031 Z M 248.136719 245.878906 C 248.296875 246.273438 246.691406 245.757812 246.472656 245.34375 C 246.292969 245.046875 246.351562 245.046875 247.167969 245.324219 C 247.640625 245.503906 248.097656 245.738281 248.136719 245.878906 Z M 251.765625 245.757812 C 251.667969 245.839844 250.457031 245.246094 250.457031 245.105469 C 250.457031 245.046875 250.773438 245.167969 251.152344 245.34375 C 251.527344 245.523438 251.804688 245.699219 251.765625 245.757812 Z M 239.253906 246.09375 C 243.953125 246.589844 246.375 247.023438 246.453125 247.402344 C 246.492188 247.65625 246.332031 247.675781 244.964844 247.5 C 242.644531 247.203125 228.808594 247.222656 226.171875 247.539062 C 223.871094 247.796875 218.320312 248.683594 217.664062 248.902344 C 217.425781 248.960938 217.765625 248.46875 218.496094 247.617188 L 219.746094 246.234375 L 222.265625 246.015625 C 223.652344 245.898438 225.179688 245.757812 225.675781 245.71875 C 227.65625 245.542969 236.460938 245.800781 239.253906 246.09375 Z M 250.179688 246.390625 C 250.476562 246.511719 250.675781 246.648438 250.617188 246.6875 C 250.476562 246.847656 248.671875 246.175781 248.671875 245.976562 C 248.671875 245.878906 248.890625 245.898438 249.167969 245.996094 C 249.445312 246.117188 249.902344 246.292969 250.179688 246.390625 Z M 251.449219 246.195312 C 251.605469 246.292969 251.667969 246.390625 251.546875 246.390625 C 251.449219 246.390625 251.210938 246.292969 251.050781 246.195312 C 250.894531 246.09375 250.855469 245.996094 250.953125 245.996094 C 251.070312 245.996094 251.289062 246.09375 251.449219 246.195312 Z M 247.9375 246.511719 C 248.691406 246.6875 248.632812 247.0625 247.859375 246.90625 C 247.523438 246.847656 247.105469 246.789062 246.96875 246.789062 C 246.808594 246.789062 246.691406 246.648438 246.691406 246.472656 C 246.691406 246.273438 246.808594 246.195312 247.046875 246.273438 C 247.226562 246.332031 247.621094 246.433594 247.9375 246.511719 Z M 192.960938 247.203125 C 192.960938 247.480469 192.863281 247.421875 192.347656 246.867188 L 191.871094 246.332031 L 192.425781 246.6875 C 192.722656 246.867188 192.960938 247.105469 192.960938 247.203125 Z M 250.753906 247.421875 C 250.894531 247.558594 250.832031 247.578125 250.554688 247.519531 C 250.339844 247.441406 249.921875 247.339844 249.625 247.261719 C 249.308594 247.203125 249.070312 247.0625 249.070312 246.984375 C 249.070312 246.789062 250.496094 247.144531 250.753906 247.421875 Z M 251.84375 246.984375 C 252.003906 247.085938 252.0625 247.183594 251.945312 247.183594 C 251.84375 247.183594 251.605469 247.085938 251.449219 246.984375 C 251.289062 246.886719 251.25 246.789062 251.347656 246.789062 C 251.46875 246.789062 251.6875 246.886719 251.84375 246.984375 Z M 194.648438 247.617188 C 195.421875 247.894531 195.558594 248.011719 195.359375 248.347656 C 195.125 248.707031 193.359375 247.933594 193.359375 247.460938 C 193.359375 247.242188 193.457031 247.183594 193.714844 247.28125 C 193.894531 247.359375 194.328125 247.519531 194.648438 247.617188 Z M 248.671875 247.714844 C 248.929688 247.992188 248.871094 248.011719 248.097656 247.894531 C 247.144531 247.757812 246.886719 247.636719 246.886719 247.378906 C 246.886719 247.105469 248.335938 247.402344 248.671875 247.714844 Z M 245.085938 247.953125 C 245.898438 248.074219 246.628906 248.289062 246.730469 248.410156 C 246.847656 248.605469 245.5 248.683594 240.285156 248.785156 C 233.625 248.902344 231.683594 249.0625 226.863281 249.773438 C 222.621094 250.40625 217.25 251.652344 214.058594 252.71875 L 212.886719 253.113281 L 214.769531 251.355469 C 216.375 249.832031 216.792969 249.554688 217.644531 249.359375 C 219.667969 248.902344 224.246094 248.191406 226.46875 247.992188 C 227.71875 247.875 229.066406 247.738281 229.441406 247.695312 C 230.828125 247.539062 243.65625 247.757812 245.085938 247.953125 Z M 252.339844 247.777344 C 252.597656 247.875 252.617188 247.953125 252.441406 247.953125 C 252.28125 247.953125 251.964844 247.875 251.746094 247.777344 C 251.488281 247.675781 251.46875 247.597656 251.648438 247.597656 C 251.804688 247.597656 252.121094 247.675781 252.339844 247.777344 Z M 251.152344 248.191406 C 251.289062 248.328125 251.050781 248.347656 250.457031 248.25 C 249.960938 248.171875 249.484375 248.03125 249.367188 247.914062 C 249.226562 247.796875 249.464844 247.777344 250.0625 247.855469 C 250.554688 247.933594 251.050781 248.09375 251.152344 248.191406 Z M 198.75 248.488281 L 199.882812 248.625 L 199.386719 249.019531 C 198.871094 249.417969 198.214844 249.417969 196.472656 248.941406 C 195.816406 248.765625 195.738281 248.707031 195.957031 248.429688 C 196.132812 248.210938 196.410156 248.171875 196.925781 248.25 C 197.304688 248.308594 198.136719 248.429688 198.75 248.488281 Z M 248.496094 248.367188 C 248.890625 248.367188 249.070312 248.46875 249.070312 248.683594 C 249.070312 248.941406 248.929688 248.980469 248.453125 248.882812 C 248.117188 248.824219 247.703125 248.765625 247.5625 248.765625 C 247.402344 248.765625 247.285156 248.625 247.285156 248.449219 C 247.285156 248.230469 247.382812 248.171875 247.601562 248.25 C 247.78125 248.308594 248.175781 248.367188 248.496094 248.367188 Z M 207.453125 248.664062 C 207.097656 248.824219 206.246094 249.042969 205.570312 249.160156 C 203.808594 249.417969 199.902344 249.632812 199.902344 249.457031 C 199.902344 249 200.714844 248.785156 202.476562 248.746094 C 203.507812 248.726562 204.996094 248.644531 205.75 248.566406 C 208.109375 248.328125 208.226562 248.328125 207.453125 248.664062 Z M 211.003906 248.785156 C 209.933594 249.179688 205.351562 250.347656 204.957031 250.347656 C 204.363281 250.324219 206.800781 249.476562 208.425781 249.121094 C 209.457031 248.902344 210.585938 248.644531 210.90625 248.566406 C 212.035156 248.269531 212.09375 248.410156 211.003906 248.785156 Z M 252.5 248.507812 C 252.359375 248.546875 252.121094 248.546875 252.003906 248.507812 C 251.863281 248.449219 251.964844 248.410156 252.242188 248.410156 C 252.519531 248.410156 252.617188 248.449219 252.5 248.507812 Z M 195.125 249.082031 C 195.144531 249.121094 195.125 249.21875 195.042969 249.335938 C 194.90625 249.574219 193.953125 249.042969 193.953125 248.746094 C 193.953125 248.605469 194.746094 248.84375 195.125 249.082031 Z M 212.191406 249.101562 C 209.675781 250.246094 203.90625 251.925781 202.4375 251.925781 C 202.042969 251.925781 202.0625 251.867188 202.675781 251.472656 C 203.09375 251.195312 203.984375 250.917969 204.957031 250.761719 C 206.898438 250.445312 209.875 249.695312 211.597656 249.0625 C 213.285156 248.46875 213.5625 248.46875 212.191406 249.101562 Z M 251.546875 248.980469 C 251.648438 249.101562 251.328125 249.121094 250.753906 249.042969 C 250.199219 248.960938 249.683594 248.824219 249.566406 248.726562 C 249.445312 248.605469 249.722656 248.585938 250.359375 248.664062 C 250.914062 248.746094 251.429688 248.882812 251.546875 248.980469 Z M 213.757812 249.042969 C 213.542969 249.257812 209.535156 251.15625 208.1875 251.691406 C 206.046875 252.539062 203.171875 253.292969 201.566406 253.429688 L 200.199219 253.546875 L 200.695312 253.054688 C 201.089844 252.640625 201.507812 252.5 202.855469 252.324219 C 205.730469 251.925781 210.882812 250.386719 212.90625 249.277344 C 213.441406 249 213.957031 248.863281 213.757812 249.042969 Z M 252.578125 249.082031 C 252.519531 249.140625 252.339844 249.160156 252.203125 249.101562 C 252.042969 249.042969 252.101562 248.980469 252.320312 248.980469 C 252.539062 248.960938 252.65625 249.019531 252.578125 249.082031 Z M 198.234375 249.8125 C 198.253906 249.832031 198.15625 250.011719 198.019531 250.207031 C 197.761719 250.5625 197.699219 250.5625 196.648438 250.265625 C 195.835938 250.03125 195.539062 249.851562 195.539062 249.574219 C 195.539062 249.238281 195.617188 249.238281 196.867188 249.496094 C 197.601562 249.652344 198.214844 249.792969 198.234375 249.8125 Z M 249.289062 249.535156 C 249.367188 249.59375 249.882812 250.800781 250.457031 252.222656 C 253.847656 260.683594 258.882812 268.234375 263.976562 272.546875 C 267.308594 275.371094 269.628906 276.519531 272.066406 276.519531 C 272.878906 276.539062 273.792969 276.480469 274.089844 276.402344 C 274.546875 276.261719 274.585938 276.28125 274.507812 276.65625 C 274.308594 277.390625 272.820312 278.753906 271.96875 278.992188 C 269.152344 279.761719 265.386719 278.042969 261.382812 274.1875 C 257.574219 270.488281 254.898438 266.714844 252.101562 261.101562 C 250.695312 258.234375 250.476562 257.738281 249.503906 255.289062 C 248.96875 253.925781 247.484375 249.496094 247.484375 249.257812 C 247.484375 249.121094 249.128906 249.378906 249.289062 249.535156 Z M 253.6875 249.296875 C 253.550781 249.335938 253.273438 249.335938 253.09375 249.296875 C 252.894531 249.238281 253.015625 249.199219 253.332031 249.199219 C 253.667969 249.199219 253.808594 249.238281 253.6875 249.296875 Z M 251.765625 249.632812 C 251.785156 249.632812 252.597656 251.214844 253.570312 253.113281 C 257.136719 260.152344 260.570312 264.835938 265.308594 269.183594 C 268.320312 271.953125 272.464844 273.910156 274.507812 273.535156 C 275 273.433594 275.042969 273.476562 275.042969 274.167969 C 275.042969 275.789062 273.15625 276.617188 270.839844 275.964844 C 266.179688 274.679688 260.726562 269.640625 256.007812 262.207031 C 254.917969 260.488281 252.300781 255.464844 251.46875 253.507812 C 250.972656 252.34375 249.863281 249.496094 249.863281 249.398438 C 249.863281 249.335938 251.707031 249.574219 251.765625 249.632812 Z M 254.164062 249.871094 C 254.460938 249.929688 254.917969 250.503906 255.632812 251.789062 C 258.425781 256.75 262.75 262.363281 266.121094 265.449219 C 268.597656 267.722656 272.125 269.917969 273.773438 270.234375 C 274.328125 270.332031 274.445312 270.46875 274.625 271.203125 C 274.742188 271.675781 274.84375 272.289062 274.84375 272.566406 C 274.84375 273.058594 274.785156 273.078125 273.8125 273.078125 C 272.484375 273.058594 270.382812 272.25 268.578125 271.042969 C 263.382812 267.625 258.089844 261.019531 253.984375 252.933594 C 253.132812 251.253906 252.441406 249.8125 252.441406 249.753906 C 252.441406 249.632812 253.273438 249.671875 254.164062 249.871094 Z M 203.925781 250.207031 C 203.3125 250.542969 202.757812 250.640625 200.851562 250.703125 C 199.5625 250.742188 198.511719 250.722656 198.511719 250.621094 C 198.511719 250.542969 198.632812 250.324219 198.789062 250.167969 C 199.027344 249.910156 199.625 249.851562 201.882812 249.8125 L 204.699219 249.792969 Z M 257 250.246094 C 257.574219 250.347656 257.8125 250.5625 258.445312 251.53125 C 261.738281 256.652344 267.152344 262.464844 270.917969 264.972656 L 272.761719 266.199219 L 273.496094 267.898438 C 273.910156 268.847656 274.25 269.679688 274.25 269.757812 C 274.25 269.957031 272.980469 269.480469 271.652344 268.828125 C 267.84375 266.910156 262.273438 261.238281 258.367188 255.289062 C 257.179688 253.46875 255.214844 250.207031 255.214844 250.03125 C 255.214844 249.96875 255.453125 249.96875 255.769531 250.03125 C 256.066406 250.089844 256.625 250.1875 257 250.246094 Z M 213.679688 250.664062 C 212.550781 251.589844 209.320312 253.6875 207.613281 254.578125 C 204.183594 256.394531 201.507812 256.890625 202.816406 255.445312 C 202.992188 255.25 203.292969 255.089844 203.488281 255.089844 C 204.660156 255.089844 210.070312 252.699219 212.789062 250.976562 C 214.253906 250.050781 214.550781 249.929688 213.679688 250.664062 Z M 214.851562 250.5625 C 213.777344 251.75 211.164062 253.726562 209.933594 254.28125 C 208.523438 254.914062 207.871094 254.992188 209.0625 254.378906 C 209.953125 253.925781 213.523438 251.492188 214.375 250.761719 C 215.1875 250.070312 215.386719 249.988281 214.851562 250.5625 Z M 196.945312 250.839844 C 197.34375 250.9375 197.441406 251.058594 197.382812 251.335938 C 197.285156 251.691406 197.222656 251.691406 196.75 251.433594 C 196.453125 251.292969 196.074219 251.019531 195.917969 250.820312 C 195.679688 250.523438 195.679688 250.503906 196.035156 250.601562 C 196.253906 250.664062 196.667969 250.78125 196.945312 250.839844 Z M 260.628906 251.453125 C 263.660156 254.121094 266.695312 257.324219 268.777344 260.03125 C 270.28125 261.988281 272.066406 264.699219 272.066406 265.035156 C 272.066406 265.46875 268.003906 262.167969 266.039062 260.152344 C 263.441406 257.441406 259.773438 252.875 258.488281 250.761719 C 258.128906 250.167969 259.773438 250.703125 260.628906 251.453125 Z M 211.320312 251.234375 C 210.25 252.046875 204.363281 254.675781 204.144531 254.4375 C 203.984375 254.300781 206.820312 252.855469 209.21875 251.886719 C 211.675781 250.859375 211.894531 250.800781 211.320312 251.234375 Z M 201.46875 251.652344 C 200.832031 252.125 200.695312 252.144531 199.324219 252.046875 C 198.511719 251.988281 197.820312 251.886719 197.78125 251.847656 C 197.738281 251.808594 197.761719 251.628906 197.839844 251.453125 C 197.9375 251.195312 198.296875 251.136719 200.058594 251.136719 L 202.160156 251.136719 Z M 199.625 252.519531 C 200.296875 252.519531 200.296875 252.519531 200 252.996094 C 199.722656 253.410156 199.605469 253.449219 199.046875 253.292969 C 198.710938 253.191406 198.253906 252.933594 198.019531 252.699219 L 197.621094 252.28125 L 198.296875 252.402344 C 198.652344 252.460938 199.265625 252.519531 199.625 252.519531 Z M 269.746094 253.3125 C 271.492188 253.902344 272.34375 254.339844 273.394531 255.109375 C 274.128906 255.664062 274.785156 256.15625 274.824219 256.199219 C 274.863281 256.238281 273.714844 255.664062 272.246094 254.933594 C 270.777344 254.179688 269.054688 253.351562 268.398438 253.054688 C 266.714844 252.324219 267.109375 252.402344 269.746094 253.3125 Z M 271.292969 254.992188 C 274.824219 256.730469 277.738281 258.765625 278.472656 260.011719 L 278.828125 260.625 L 278.292969 260.625 C 277.917969 260.625 277.378906 260.25 276.351562 259.28125 C 274.644531 257.679688 272.898438 256.433594 269.945312 254.753906 C 268.71875 254.042969 267.707031 253.449219 267.707031 253.410156 C 267.707031 253.292969 269.054688 253.882812 271.292969 254.992188 Z M 204.261719 253.566406 C 204.261719 253.609375 203.867188 253.925781 203.390625 254.261719 C 202.359375 254.992188 200.890625 255.128906 200.257812 254.554688 C 199.683594 254.042969 199.820312 253.902344 200.953125 253.882812 C 201.507812 253.882812 202.339844 253.804688 202.777344 253.726562 C 203.667969 253.527344 204.261719 253.46875 204.261719 253.566406 Z M 268.777344 255.566406 C 270.738281 256.851562 272.683594 258.390625 274.226562 259.894531 C 275.816406 261.4375 277.558594 263.648438 277.261719 263.75 C 276.84375 263.886719 276.210938 263.414062 275.359375 262.304688 C 274.050781 260.625 271.253906 257.839844 269.410156 256.414062 C 266.675781 254.28125 266.515625 254.0625 268.777344 255.566406 Z M 208.761719 255.566406 C 208.445312 255.820312 207.472656 256.394531 206.582031 256.851562 C 204.601562 257.878906 205.414062 257.144531 207.613281 255.941406 C 209.320312 254.992188 209.554688 254.914062 208.761719 255.566406 Z M 270.539062 258.015625 C 272.1875 259.4375 275.320312 262.800781 275.160156 262.957031 C 274.921875 263.175781 273.773438 262.246094 272.761719 261.019531 C 272.125 260.25 270.539062 258.589844 269.210938 257.324219 C 266.753906 254.972656 267.410156 255.308594 270.539062 258.015625 Z M 278.152344 257.207031 C 278.710938 257.660156 278.6875 257.660156 277.636719 257.144531 C 276.546875 256.632812 274.445312 255.308594 274.445312 255.148438 C 274.445312 254.992188 277.597656 256.730469 278.152344 257.207031 Z M 272.523438 256.929688 C 274.386719 258.195312 276.527344 260.050781 275.636719 259.617188 C 274.804688 259.222656 272.839844 257.859375 271.332031 256.632812 C 269.035156 254.773438 269.550781 254.894531 272.523438 256.929688 Z M 269.984375 258.746094 C 270.324219 259.0625 270.996094 259.777344 271.492188 260.308594 C 272.34375 261.277344 272.34375 261.277344 271.710938 260.902344 C 271.355469 260.703125 270.5 259.894531 269.828125 259.144531 C 269.152344 258.371094 268.558594 257.71875 268.5 257.660156 C 268.4375 257.601562 268.082031 257.207031 267.707031 256.769531 C 267.050781 256.039062 267.925781 256.789062 269.984375 258.746094 Z M 272.1875 263.015625 C 272.742188 263.828125 273.457031 264.914062 273.753906 265.449219 L 274.308594 266.398438 L 273.691406 266.082031 C 273.296875 265.863281 272.820312 265.289062 272.265625 264.28125 C 271.828125 263.472656 270.957031 262.128906 270.363281 261.316406 C 269.789062 260.488281 269.292969 259.753906 269.292969 259.675781 C 269.3125 259.398438 271.214844 261.574219 272.1875 263.015625 Z M 277.378906 261.082031 C 277.71875 261.296875 278.410156 262.699219 278.410156 263.175781 C 278.410156 263.925781 278.054688 263.769531 277.339844 262.679688 C 276.945312 262.089844 276.289062 261.238281 275.894531 260.824219 L 275.179688 260.03125 L 276.152344 260.488281 C 276.6875 260.722656 277.242188 261 277.378906 261.082031 Z M 274.089844 263.628906 C 274.40625 264.105469 274.921875 264.996094 275.257812 265.605469 C 275.714844 266.496094 275.773438 266.753906 275.535156 266.753906 C 275.121094 266.753906 274.765625 266.320312 273.671875 264.480469 C 273.175781 263.609375 272.5625 262.640625 272.363281 262.304688 L 271.96875 261.734375 L 272.742188 262.246094 C 273.15625 262.542969 273.773438 263.15625 274.089844 263.628906 Z M 276.566406 265.171875 C 277.320312 266.65625 277.359375 266.953125 276.84375 266.953125 C 276.628906 266.953125 276.390625 266.714844 276.230469 266.359375 C 276.09375 266.023438 275.675781 265.25 275.320312 264.636719 C 274.941406 264.046875 274.644531 263.511719 274.644531 263.472656 C 274.644531 263.433594 274.921875 263.511719 275.277344 263.648438 C 275.753906 263.847656 276.074219 264.222656 276.566406 265.171875 Z M 277.875 264.914062 C 278.074219 265.546875 277.855469 266.929688 277.679688 266.359375 C 277.617188 266.199219 277.359375 265.625 277.101562 265.113281 L 276.628906 264.164062 L 277.164062 264.222656 C 277.578125 264.261719 277.757812 264.421875 277.875 264.914062 Z M 274.1875 266.851562 C 274.425781 267.011719 274.785156 267.625 275 268.195312 C 275.695312 270.035156 275.695312 270.113281 275.300781 270.113281 C 275.023438 270.113281 274.765625 269.679688 274.226562 268.335938 C 273.832031 267.347656 273.574219 266.554688 273.632812 266.554688 C 273.714844 266.554688 273.949219 266.695312 274.1875 266.851562 Z M 276.488281 268.53125 C 276.746094 269.5625 276.746094 269.699219 276.46875 269.816406 C 276.113281 269.957031 276.152344 270.035156 275.734375 268.730469 C 275.535156 268.136719 275.339844 267.542969 275.300781 267.425781 C 275.238281 267.289062 275.398438 267.226562 275.695312 267.289062 C 276.113281 267.367188 276.230469 267.582031 276.488281 268.53125 Z M 277.421875 268.078125 C 277.421875 269.304688 277.125 269.421875 276.90625 268.335938 C 276.707031 267.445312 276.726562 267.347656 277.0625 267.347656 C 277.339844 267.347656 277.421875 267.503906 277.421875 268.078125 Z M 276.726562 270.84375 C 276.507812 271.753906 276.230469 271.855469 276.230469 271.042969 C 276.230469 270.507812 276.308594 270.3125 276.546875 270.3125 C 276.804688 270.3125 276.84375 270.429688 276.726562 270.84375 Z M 275.835938 271.042969 C 275.835938 271.359375 275.894531 271.792969 275.953125 272.03125 C 276.03125 272.347656 275.972656 272.527344 275.753906 272.605469 C 275.320312 272.761719 275.300781 272.761719 275.140625 271.539062 C 275.023438 270.589844 275.042969 270.507812 275.417969 270.507812 C 275.734375 270.507812 275.835938 270.628906 275.835938 271.042969 Z M 275.816406 273.414062 C 275.816406 273.515625 275.734375 273.75 275.636719 273.96875 C 275.476562 274.324219 275.457031 274.304688 275.457031 273.8125 C 275.4375 273.515625 275.535156 273.277344 275.636719 273.277344 C 275.753906 273.277344 275.835938 273.335938 275.816406 273.414062 Z M 275.816406 273.414062 " fill-opacity="1" fill-rule="nonzero"/></g><g fill="#6d6d6d" fill-opacity="1"><g transform="translate(96.905649, 257.626478)"><g><path d="M 18.71875 -12.453125 L 24.109375 -12.453125 L 24.109375 -2.90625 C 22.785156 -1.96875 21.179688 -1.203125 19.296875 -0.609375 C 17.421875 -0.015625 15.632812 0.28125 13.9375 0.28125 C 10.195312 0.28125 7.078125 -0.910156 4.578125 -3.296875 C 2.085938 -5.691406 0.84375 -8.675781 0.84375 -12.25 C 0.84375 -15.789062 2.125 -18.75 4.6875 -21.125 C 7.257812 -23.507812 10.476562 -24.703125 14.34375 -24.703125 C 16.164062 -24.703125 17.972656 -24.375 19.765625 -23.71875 C 21.566406 -23.070312 23.097656 -22.1875 24.359375 -21.0625 L 20.859375 -16.828125 C 19.972656 -17.648438 18.945312 -18.300781 17.78125 -18.78125 C 16.613281 -19.257812 15.457031 -19.5 14.3125 -19.5 C 12.3125 -19.5 10.625 -18.800781 9.25 -17.40625 C 7.882812 -16.019531 7.203125 -14.300781 7.203125 -12.25 C 7.203125 -10.175781 7.890625 -8.4375 9.265625 -7.03125 C 10.648438 -5.632812 12.359375 -4.9375 14.390625 -4.9375 C 15.691406 -4.9375 17.132812 -5.332031 18.71875 -6.125 Z M 18.71875 -12.453125 "/></g></g></g><g fill="#6d6d6d" fill-opacity="1"><g transform="translate(122.904781, 257.626478)"><g><path d="M 18.71875 -4.515625 L 8.015625 -4.515625 L 6.234375 0 L -0.171875 0 L 10.390625 -24.5 L 16.796875 -24.5 L 27.125 0 L 20.46875 0 Z M 16.90625 -9.234375 L 13.40625 -18.3125 L 9.828125 -9.234375 Z M 16.90625 -9.234375 "/></g></g></g><g fill="#6d6d6d" fill-opacity="1"><g transform="translate(149.848692, 257.626478)"><g><path d="M 2.453125 -24.5 L 14.03125 -24.5 C 16.789062 -24.5 18.976562 -23.941406 20.59375 -22.828125 C 22.21875 -21.722656 23.03125 -20.238281 23.03125 -18.375 C 23.03125 -17.09375 22.65625 -15.96875 21.90625 -15 C 21.164062 -14.03125 20.140625 -13.359375 18.828125 -12.984375 C 20.367188 -12.679688 21.59375 -11.96875 22.5 -10.84375 C 23.414062 -9.726562 23.875 -8.378906 23.875 -6.796875 C 23.875 -4.710938 23.023438 -3.054688 21.328125 -1.828125 C 19.640625 -0.609375 17.347656 0 14.453125 0 L 2.453125 0 Z M 8.640625 -19.734375 L 8.640625 -14.703125 L 13.6875 -14.703125 C 14.59375 -14.703125 15.3125 -14.925781 15.84375 -15.375 C 16.382812 -15.832031 16.65625 -16.457031 16.65625 -17.25 C 16.65625 -18.019531 16.382812 -18.625 15.84375 -19.0625 C 15.3125 -19.507812 14.59375 -19.734375 13.6875 -19.734375 Z M 8.640625 -10.21875 L 8.640625 -4.796875 L 13.6875 -4.796875 C 14.851562 -4.796875 15.769531 -5.039062 16.4375 -5.53125 C 17.101562 -6.019531 17.4375 -6.695312 17.4375 -7.5625 C 17.4375 -8.375 17.101562 -9.019531 16.4375 -9.5 C 15.769531 -9.976562 14.851562 -10.21875 13.6875 -10.21875 Z M 8.640625 -10.21875 "/></g></g></g><g fill="#6d6d6d" fill-opacity="1"><g transform="translate(174.868039, 257.626478)"><g><path d="M 17.21875 0 L 13.578125 -6.890625 L 8.6875 -6.890625 L 8.6875 0 L 2.453125 0 L 2.453125 -24.5 L 13.40625 -24.5 C 16.644531 -24.5 19.148438 -23.757812 20.921875 -22.28125 C 22.703125 -20.800781 23.59375 -18.691406 23.59375 -15.953125 C 23.59375 -12.179688 22.109375 -9.554688 19.140625 -8.078125 L 24.296875 0 Z M 8.6875 -11.796875 L 13.40625 -11.796875 C 14.757812 -11.796875 15.804688 -12.132812 16.546875 -12.8125 C 17.296875 -13.488281 17.671875 -14.46875 17.671875 -15.75 C 17.671875 -17.007812 17.296875 -17.960938 16.546875 -18.609375 C 15.804688 -19.265625 14.757812 -19.59375 13.40625 -19.59375 L 8.6875 -19.59375 Z M 8.6875 -11.796875 "/></g></g></g><g fill="#6d6d6d" fill-opacity="1"><g transform="translate(200.202315, 257.626478)"><g><path d="M 8.6875 0 L 2.453125 0 L 2.453125 -24.5 L 8.6875 -24.5 Z M 8.6875 0 "/></g></g></g><g fill="#6d6d6d" fill-opacity="1"><g transform="translate(211.329805, 257.626478)"><g><path d="M 21.625 -19.59375 L 8.6875 -19.59375 L 8.6875 -14.734375 L 20.375 -14.734375 L 20.375 -9.828125 L 8.6875 -9.828125 L 8.6875 -4.90625 L 22.015625 -4.90625 L 22.015625 0 L 2.453125 0 L 2.453125 -24.5 L 21.625 -24.5 Z M 21.625 -19.59375 "/></g></g></g><g fill="#6d6d6d" fill-opacity="1"><g transform="translate(234.914474, 257.626478)"><g><path d="M 8.6875 -5.21875 L 19.078125 -5.21875 L 19.078125 0 L 2.453125 0 L 2.453125 -24.5 L 8.6875 -24.5 Z M 8.6875 -5.21875 "/></g></g></g><g fill="#6d6d6d" fill-opacity="1"><g transform="translate(254.510054, 257.626478)"><g><path d="M 21.625 -19.59375 L 8.6875 -19.59375 L 8.6875 -14.734375 L 20.375 -14.734375 L 20.375 -9.828125 L 8.6875 -9.828125 L 8.6875 -4.90625 L 22.015625 -4.90625 L 22.015625 0 L 2.453125 0 L 2.453125 -24.5 L 21.625 -24.5 Z M 21.625 -19.59375 "/></g></g></g><g fill="#ffffff" fill-opacity="1"><g transform="translate(99.197993, 273.901446)"><g><path d="M 6.828125 -11.953125 C 7.671875 -11.953125 8.488281 -11.789062 9.28125 -11.46875 C 10.082031 -11.144531 10.773438 -10.691406 11.359375 -10.109375 L 10.1875 -8.65625 C 9.75 -9.113281 9.234375 -9.476562 8.640625 -9.75 C 8.054688 -10.03125 7.46875 -10.171875 6.875 -10.171875 C 5.675781 -10.171875 4.664062 -9.765625 3.84375 -8.953125 C 3.03125 -8.140625 2.625 -7.148438 2.625 -5.984375 C 2.625 -4.804688 3.03125 -3.8125 3.84375 -3 C 4.664062 -2.1875 5.675781 -1.78125 6.875 -1.78125 C 8.101562 -1.78125 9.207031 -2.253906 10.1875 -3.203125 L 11.375 -1.875 C 10.757812 -1.269531 10.039062 -0.789062 9.21875 -0.4375 C 8.40625 -0.09375 7.585938 0.078125 6.765625 0.078125 C 5.015625 0.078125 3.546875 -0.5 2.359375 -1.65625 C 1.171875 -2.820312 0.578125 -4.257812 0.578125 -5.96875 C 0.578125 -7.65625 1.179688 -9.070312 2.390625 -10.21875 C 3.597656 -11.375 5.078125 -11.953125 6.828125 -11.953125 Z M 6.828125 -11.953125 "/></g></g></g><g fill="#ffffff" fill-opacity="1"><g transform="translate(117.620496, 273.901446)"><g><path d="M 9.109375 0 L 6.9375 -3.609375 C 6.820312 -3.597656 6.640625 -3.59375 6.390625 -3.59375 L 3.5625 -3.59375 L 3.5625 0 L 1.5625 0 L 1.5625 -11.90625 L 6.390625 -11.90625 C 7.910156 -11.90625 9.085938 -11.550781 9.921875 -10.84375 C 10.765625 -10.132812 11.1875 -9.132812 11.1875 -7.84375 C 11.1875 -6.882812 10.972656 -6.078125 10.546875 -5.421875 C 10.117188 -4.765625 9.507812 -4.285156 8.71875 -3.984375 L 11.390625 0 Z M 3.5625 -5.390625 L 6.390625 -5.390625 C 8.316406 -5.390625 9.28125 -6.1875 9.28125 -7.78125 C 9.28125 -9.320312 8.316406 -10.09375 6.390625 -10.09375 L 3.5625 -10.09375 Z M 3.5625 -5.390625 "/></g></g></g><g fill="#ffffff" fill-opacity="1"><g transform="translate(136.484799, 273.901446)"><g><path d="M 11.671875 -11.90625 L 11.671875 -4.9375 C 11.671875 -3.375 11.210938 -2.144531 10.296875 -1.25 C 9.378906 -0.363281 8.113281 0.078125 6.5 0.078125 C 4.894531 0.078125 3.628906 -0.363281 2.703125 -1.25 C 1.785156 -2.144531 1.328125 -3.375 1.328125 -4.9375 L 1.328125 -11.90625 L 3.328125 -11.90625 L 3.328125 -4.9375 C 3.328125 -3.9375 3.613281 -3.148438 4.1875 -2.578125 C 4.757812 -2.003906 5.539062 -1.71875 6.53125 -1.71875 C 7.5 -1.71875 8.265625 -2 8.828125 -2.5625 C 9.390625 -3.132812 9.671875 -3.925781 9.671875 -4.9375 L 9.671875 -11.90625 Z M 11.671875 -11.90625 "/></g></g></g><g fill="#ffffff" fill-opacity="1"><g transform="translate(156.045783, 273.901446)"><g><path d="M 6.828125 -11.953125 C 7.671875 -11.953125 8.488281 -11.789062 9.28125 -11.46875 C 10.082031 -11.144531 10.773438 -10.691406 11.359375 -10.109375 L 10.1875 -8.65625 C 9.75 -9.113281 9.234375 -9.476562 8.640625 -9.75 C 8.054688 -10.03125 7.46875 -10.171875 6.875 -10.171875 C 5.675781 -10.171875 4.664062 -9.765625 3.84375 -8.953125 C 3.03125 -8.140625 2.625 -7.148438 2.625 -5.984375 C 2.625 -4.804688 3.03125 -3.8125 3.84375 -3 C 4.664062 -2.1875 5.675781 -1.78125 6.875 -1.78125 C 8.101562 -1.78125 9.207031 -2.253906 10.1875 -3.203125 L 11.375 -1.875 C 10.757812 -1.269531 10.039062 -0.789062 9.21875 -0.4375 C 8.40625 -0.09375 7.585938 0.078125 6.765625 0.078125 C 5.015625 0.078125 3.546875 -0.5 2.359375 -1.65625 C 1.171875 -2.820312 0.578125 -4.257812 0.578125 -5.96875 C 0.578125 -7.65625 1.179688 -9.070312 2.390625 -10.21875 C 3.597656 -11.375 5.078125 -11.953125 6.828125 -11.953125 Z M 6.828125 -11.953125 "/></g></g></g><g fill="#ffffff" fill-opacity="1"><g transform="translate(174.468286, 273.901446)"><g><path d="M 3.5625 0 L 1.5625 0 L 1.5625 -11.90625 L 3.5625 -11.90625 Z M 3.5625 0 "/></g></g></g><g fill="#ffffff" fill-opacity="1"><g transform="translate(186.178898, 273.901446)"><g><path d="M 9.25 -2.6875 L 3.25 -2.6875 L 2.109375 0 L 0.015625 0 L 5.265625 -11.90625 L 7.328125 -11.90625 L 12.53125 0 L 10.390625 0 Z M 8.484375 -4.46875 L 6.234375 -9.765625 L 4 -4.46875 Z M 8.484375 -4.46875 "/></g></g></g><g fill="#ffffff" fill-opacity="1"><g transform="translate(205.298084, 273.901446)"><g><path d="M 11.890625 0 L 9.90625 0 L 3.5625 -8.53125 L 3.5625 0 L 1.5625 0 L 1.5625 -11.90625 L 3.53125 -11.90625 L 9.90625 -3.34375 L 9.90625 -11.90625 L 11.890625 -11.90625 Z M 11.890625 0 "/></g></g></g><g fill="#ffffff" fill-opacity="1"><g transform="translate(225.334845, 273.901446)"><g><path d="M 3.5625 0 L 1.5625 0 L 1.5625 -11.90625 L 3.5625 -11.90625 Z M 3.5625 0 "/></g></g></g><g fill="#ffffff" fill-opacity="1"><g transform="translate(99.197993, 220.976469)"><g><path d="M 2.109375 0 L 1.1875 0 L 1.1875 -7.859375 L 2.109375 -7.859375 Z M 2.109375 0 "/></g></g></g><g fill="#ffffff" fill-opacity="1"><g transform="translate(102.49887, 220.976469)"><g><path d="M 2.09375 0 L 1.1875 0 L 1.1875 -7.859375 L 2.328125 -7.859375 L 6.15625 -1.859375 L 6.28125 -1.875 L 6.28125 -7.859375 L 7.1875 -7.859375 L 7.1875 0 L 6.21875 0 L 2.21875 -6.421875 L 2.09375 -6.390625 Z M 2.09375 0 "/></g></g></g><g fill="#ffffff" fill-opacity="1"><g transform="translate(110.866457, 220.976469)"><g><path d="M 3.734375 -7.859375 C 4.523438 -7.859375 5.207031 -7.710938 5.78125 -7.421875 C 6.351562 -7.140625 6.789062 -6.707031 7.09375 -6.125 C 7.40625 -5.539062 7.5625 -4.804688 7.5625 -3.921875 C 7.5625 -3.046875 7.40625 -2.316406 7.09375 -1.734375 C 6.789062 -1.148438 6.351562 -0.710938 5.78125 -0.421875 C 5.207031 -0.140625 4.523438 0 3.734375 0 L 1.1875 0 L 1.1875 -7.859375 Z M 3.640625 -0.78125 C 4.296875 -0.78125 4.835938 -0.878906 5.265625 -1.078125 C 5.691406 -1.285156 6.015625 -1.617188 6.234375 -2.078125 C 6.460938 -2.546875 6.578125 -3.160156 6.578125 -3.921875 C 6.578125 -4.691406 6.460938 -5.304688 6.234375 -5.765625 C 6.015625 -6.222656 5.691406 -6.550781 5.265625 -6.75 C 4.835938 -6.957031 4.296875 -7.0625 3.640625 -7.0625 L 2.109375 -7.0625 L 2.109375 -0.78125 Z M 3.640625 -0.78125 "/></g></g></g><g fill="#ffffff" fill-opacity="1"><g transform="translate(119.207208, 220.976469)"><g><path d="M 2.109375 -3.703125 L 2.109375 -0.765625 L 6.109375 -0.765625 L 6.109375 0 L 1.1875 0 L 1.1875 -7.859375 L 6.03125 -7.859375 L 6.03125 -7.09375 L 2.109375 -7.09375 L 2.109375 -4.46875 L 5.5625 -4.46875 L 5.5625 -3.703125 Z M 2.109375 -3.703125 "/></g></g></g><g fill="#ffffff" fill-opacity="1"><g transform="translate(125.835797, 220.976469)"><g><path d="M 1.328125 0 L 0.3125 0 L 2.765625 -4.046875 L 0.421875 -7.859375 L 1.46875 -7.859375 L 3.4375 -4.671875 L 3.5625 -4.671875 L 5.5625 -7.859375 L 6.546875 -7.859375 L 4.21875 -4.046875 L 6.671875 0 L 5.640625 0 L 3.546875 -3.40625 L 3.40625 -3.40625 Z M 1.328125 0 "/></g></g></g><g fill="#ffffff" fill-opacity="1"><g transform="translate(132.802525, 220.976469)"><g><path d="M 1.4375 0.046875 C 1.238281 0.046875 1.078125 -0.0078125 0.953125 -0.125 C 0.835938 -0.238281 0.78125 -0.390625 0.78125 -0.578125 C 0.78125 -0.765625 0.835938 -0.914062 0.953125 -1.03125 C 1.078125 -1.15625 1.238281 -1.21875 1.4375 -1.21875 C 1.644531 -1.21875 1.804688 -1.160156 1.921875 -1.046875 C 2.046875 -0.929688 2.109375 -0.773438 2.109375 -0.578125 C 2.109375 -0.390625 2.046875 -0.238281 1.921875 -0.125 C 1.804688 -0.0078125 1.644531 0.046875 1.4375 0.046875 Z M 1.4375 0.046875 "/></g></g></g></svg>